<svg xmlns="http://www.w3.org/2000/svg" viewBox="0 0 140 30"><path d="M0 8.5h2.6V7.4c0-3.3 1.4-6.2 5.5-6.2 1.2 0 2.4.3 3.1.8l-1 2c-.6-.3-1.2-.5-2.1-.5-2.5 0-2.9 1.2-2.9 3.9v1.1h3.9v2.3H5.2v11.8H2.6V10.8H0V8.5zm22.6 12.1C21 22.2 19.3 23 16.8 23c-2 0-3.5-.6-4.5-1.5-1.2-1.2-1.8-2.8-1.8-5.6 0-2.3.4-4.7 1.7-6.2.9-1.1 2.4-1.9 4.7-1.9 4.2 0 5.8 2.8 5.8 6.2 0 .5 0 1.2-.1 1.8l-9.3.1c.1 3 .5 4.9 3.5 4.9 1.8 0 3.2-.6 4.3-1.8l1.5 1.6zm-2.5-6.9c0-2.4-.5-3.8-3.1-3.8-2.7 0-3.4 1.5-3.6 3.8h6.7zM28.4.3v22.3h-2.6V.3h2.6zm6.7 7.8v14.6h-2.6V8.1h2.6zm6.5 0v2.6c.9-1.8 2.8-2.9 4.8-2.9 1.5 0 2.6.6 3.3 1.4 1.3 1.4 1.7 3.7 1.7 6 0 2.7-.5 5.1-2.1 6.5-.9.8-2.2 1.3-3.8 1.3-1.4 0-3-.4-4-1.8v8.5H39V8.1h2.6zm1.4 3.5c-1 1.3-1.4 2.9-1.4 4.6 0 1.4.2 2.6.9 3.4.6.7 1.6 1.1 2.9 1.1 2.5 0 3.3-1.6 3.3-5.4 0-3.6-.8-5.2-2.7-5.2-1.2 0-2.3.5-3 1.5zm23.2 9c-1.6 1.6-3.3 2.4-5.8 2.4-2 0-3.5-.6-4.5-1.5-1.2-1.2-1.8-2.8-1.8-5.6 0-2.3.4-4.7 1.7-6.2.9-1.1 2.4-1.9 4.7-1.9 4.2 0 5.8 2.8 5.8 6.2 0 .5 0 1.2-.1 1.8l-9.3.1c.1 3 .5 4.9 3.5 4.9 1.8 0 3.2-.6 4.3-1.8l1.5 1.6zm-2.5-6.9c0-2.4-.5-3.8-3.1-3.8-2.7 0-3.4 1.5-3.6 3.8h6.7zM75 8.5h2.6v-1c0-3.5 1.2-6.4 6.6-6.4 2 0 3.5.4 4.8 1.3l-1 2c-1.1-.7-2.3-1-4-1-3.4 0-3.8 1.4-3.8 4v1.1H89v14.1h-2.6V10.8h-6.1v11.8h-2.6V10.8H75V8.5zm17.4 1.3c1.4-1.5 3.2-2 5.3-2 3.6 0 5.5 1.5 5.5 5.3v9.5h-2.4v-2.4c-1 1.9-2.8 2.8-4.7 2.8-1.3 0-2.4-.4-3.1-1.1-.8-.7-1.2-1.8-1.2-3.1 0-1.7.6-2.7 1.7-3.5 1.3-.9 3-1.2 5.1-1.2h2.1v-.7c0-2.5-.8-3.3-3-3.3-1.6 0-2.7.4-3.8 1.5l-1.5-1.8zm5.9 6.2c-2.3 0-3.8.4-3.8 2.6 0 1.4.5 2.2 2 2.2 1.9 0 4.1-1.4 4.2-4.8h-2.4zm11-15.7v22.3h-2.6V.3h2.6zm6.3 0v10.6c.6-1.8 2.3-3.2 4.6-3.2 2.7 0 4.2 1.8 4.2 4.8v10.1h-2.6V13c0-1.9-.5-2.9-2-2.9-2.1 0-4.2 2-4.2 7.4v5.1H113V.3h2.6zm22.6 20.8c-1.1 1.2-2.5 1.9-4.8 1.9-2.2 0-3.6-.7-4.6-1.8-1.3-1.4-1.6-3.1-1.6-5.6 0-2.7.4-4.5 1.8-6 1.1-1.2 2.6-1.9 4.8-1.9 2.2 0 3.6.7 4.6 1.8 1.3 1.4 1.6 3.2 1.6 5.7 0 2.6-.4 4.3-1.8 5.9zm-2-10.2c-.5-.5-1.2-.9-2.6-.9-1.5 0-2.2.5-2.6 1-.8 1-1.1 2.7-1.1 4.5 0 2.1.3 3.4 1 4.3.4.5 1.3.9 2.5.9 1.5 0 2.2-.5 2.7-1 .8-1 1.1-2.6 1.1-4.4.1-1.9-.2-3.5-1-4.4z"/></svg>