<?xml version="1.0" encoding="utf-8"?>
<!-- Generated by IcoMoon.io -->
<!DOCTYPE svg PUBLIC "-//W3C//DTD SVG 1.1//EN" "http://www.w3.org/Graphics/SVG/1.1/DTD/svg11.dtd">
<svg version="1.1" xmlns="http://www.w3.org/2000/svg" xmlns:xlink="http://www.w3.org/1999/xlink" width="24" height="24" viewBox="0 0 24 24">
<path fill="#444" d="M17.016 6.984c2.766 0 4.969 2.25 4.969 5.016s-2.203 5.016-4.969 5.016h-4.031v-1.922h4.031c1.688 0 3.094-1.406 3.094-3.094s-1.406-3.094-3.094-3.094h-4.031v-1.922h4.031zM8.016 12.984v-1.969h7.969v1.969h-7.969zM3.891 12c0 1.688 1.406 3.094 3.094 3.094h4.031v1.922h-4.031c-2.766 0-4.969-2.25-4.969-5.016s2.203-5.016 4.969-5.016h4.031v1.922h-4.031c-1.688 0-3.094 1.406-3.094 3.094z"></path>
</svg>
