<?xml version="1.0" encoding="utf-8"?>
<!-- Generated by IcoMoon.io -->
<!DOCTYPE svg PUBLIC "-//W3C//DTD SVG 1.1//EN" "http://www.w3.org/Graphics/SVG/1.1/DTD/svg11.dtd">
<svg version="1.1" xmlns="http://www.w3.org/2000/svg" xmlns:xlink="http://www.w3.org/1999/xlink" width="24" height="24" viewBox="0 0 24 24">
<path fill="#444" d="M12 0.296c-6.627 0-12 5.372-12 12 0 5.302 3.438 9.8 8.206 11.387 0.6 0.111 0.82-0.26 0.82-0.577 0-0.286-0.011-1.231-0.016-2.234-3.339 0.726-4.043-1.416-4.043-1.416-0.546-1.387-1.332-1.756-1.332-1.756-1.089-0.745 0.082-0.729 0.082-0.729 1.205 0.085 1.839 1.237 1.839 1.237 1.070 1.834 2.807 1.304 3.492 0.997 0.108-0.775 0.418-1.305 0.762-1.605-2.666-0.303-5.467-1.332-5.467-5.93 0-1.31 0.469-2.381 1.237-3.221-0.125-0.302-0.536-1.523 0.116-3.176 0 0 1.008-0.322 3.301 1.23 0.957-0.266 1.984-0.399 3.004-0.404 1.020 0.005 2.047 0.138 3.006 0.404 2.291-1.553 3.297-1.23 3.297-1.23 0.653 1.653 0.243 2.873 0.118 3.176 0.769 0.84 1.235 1.911 1.235 3.221 0 4.609-2.807 5.624-5.479 5.921 0.43 0.372 0.814 1.103 0.814 2.222 0 1.606-0.014 2.898-0.014 3.293 0 0.319 0.216 0.694 0.824 0.576 4.765-1.588 8.199-6.085 8.199-11.385 0-6.628-5.373-12-12-12z"></path>
</svg>
