<!-- Generated by IcoMoon.io -->
<svg version="1.1" xmlns="http://www.w3.org/2000/svg" width="448" height="448" viewBox="0 0 448 448">
<title></title>
<g id="icomoon-ignore">
</g>
<path fill="#000" d="M149.25 105.25v293.25c0 7.75-3.75 15-12.25 15-3 0-5.75-0.75-8.25-2l-116.25-58.25c-7-3.5-12.5-12.5-12.5-20v-285c0-6.25 3-12 9.75-12 4 0 7.5 2 11 3.75l127.75 64c0.25 0.25 0.75 1 0.75 1.25zM165.25 130.5l133.5 216.5-133.5-66.5v-150zM448 135v263.5c0 8.25-4.75 14-13 14-4.25 0-8.25-1.25-11.75-3.25l-110.25-55zM447.25 105c0 1-129.25 210.75-139.25 226.75l-97.5-158.5 81-131.75c2.75-4.5 7.75-7 13-7 2.25 0 4.5 0.5 6.5 1.5l135.25 67.5c0.5 0.25 1 0.75 1 1.5z"></path>
</svg>
