<svg xmlns="http://www.w3.org/2000/svg" xmlns:xlink="http://www.w3.org/1999/xlink" class="hide"><symbol id="codepen"><path d="M29.555 11.501l-14-9.333a1 1 0 0 0-1.109 0l-14 9.333a1 1 0 0 0-.445.832v9.333a1 1 0 0 0 .445.832l14 9.333a.998.998 0 0 0 1.11 0l14-9.333a1 1 0 0 0 .445-.832v-9.333a1 1 0 0 0-.445-.832zM15 20.465L9.803 17 15 13.535 20.197 17 15 20.465zm1-8.667v-6.93l11.197 7.465L22 15.798l-6-4zm-2 0l-6 4-5.197-3.465L14 4.868v6.93zM6.197 17L2 19.798v-5.596L6.197 17zM8 18.202l6 4v6.93L2.803 21.667 8 18.202zm8 4l6-4 5.197 3.465L16 29.132v-6.93zM23.803 17L28 14.202v5.596L23.803 17z"/></symbol><symbol id="facebook"><path d="M17 1H3c-1.1 0-2 .9-2 2v14c0 1.101.9 2 2 2h7v-7H8V9.525h2v-2.05c0-2.164 1.212-3.684 3.766-3.684l1.803.002v2.605h-1.197c-.994 0-1.372.746-1.372 1.438v1.69h2.568L15 12h-2v7h4c1.1 0 2-.899 2-2V3c0-1.1-.9-2-2-2z"/></symbol><symbol id="github"><path d="M12 .296c-6.627 0-12 5.372-12 12 0 5.302 3.438 9.8 8.206 11.387.6.111.82-.26.82-.577 0-.286-.011-1.231-.016-2.234-3.339.726-4.043-1.416-4.043-1.416-.546-1.387-1.332-1.756-1.332-1.756-1.089-.745.082-.729.082-.729 1.205.085 1.839 1.237 1.839 1.237 1.07 1.834 2.807 1.304 3.492.997.108-.775.418-1.305.762-1.605-2.666-.303-5.467-1.332-5.467-5.93 0-1.31.469-2.381 1.237-3.221-.125-.302-.536-1.523.116-3.176 0 0 1.008-.322 3.301 1.23a11.516 11.516 0 0 1 3.004-.404c1.02.005 2.047.138 3.006.404 2.291-1.553 3.297-1.23 3.297-1.23.653 1.653.243 2.873.118 3.176.769.84 1.235 1.911 1.235 3.221 0 4.609-2.807 5.624-5.479 5.921.43.372.814 1.103.814 2.222 0 1.606-.014 2.898-.014 3.293 0 .319.216.694.824.576 4.765-1.588 8.199-6.085 8.199-11.385 0-6.628-5.373-12-12-12z"/></symbol><symbol id="google"><path d="M1.989 5.589c0 1.494.499 2.572 1.482 3.205.806.52 1.74.598 2.226.598.118 0 .213-.006.279-.01 0 0-.154 1.004.59 1.996h-.034c-1.289 0-5.493.269-5.493 3.727 0 3.516 3.861 3.695 4.636 3.695.061 0 .097-.002.097-.002.008 0 .063.002.158.002.497 0 1.782-.062 2.975-.643 1.548-.75 2.333-2.059 2.333-3.885 0-1.764-1.196-2.814-2.069-3.582-.533-.469-.994-.873-.994-1.266 0-.4.337-.701.762-1.082.689-.615 1.339-1.492 1.339-3.15 0-1.457-.189-2.436-1.354-3.057.121-.062.551-.107.763-.137.631-.086 1.554-.184 1.554-.699V1.2H6.64c-.046.002-4.651.172-4.651 4.389zm7.424 9.013c.088 1.406-1.115 2.443-2.922 2.574-1.835.135-3.345-.691-3.433-2.096-.043-.676.254-1.336.835-1.863.589-.533 1.398-.863 2.278-.928.104-.006.207-.012.31-.012 1.699.001 2.849.999 2.932 2.325zM8.212 4.626c.451 1.588-.23 3.246-1.316 3.553a1.417 1.417 0 0 1-.384.052c-.994 0-1.979-1.006-2.345-2.393-.204-.776-.187-1.458.047-2.112.229-.645.643-1.078 1.163-1.225.125-.035.254-.053.385-.053 1.2 0 1.972.498 2.45 2.178zM16 8V5h-2v3h-3v2h3v3h2v-3h3V8h-3z"/></symbol><symbol id="link"><path d="M17.016 6.984c2.766 0 4.969 2.25 4.969 5.016s-2.203 5.016-4.969 5.016h-4.031v-1.922h4.031c1.688 0 3.094-1.406 3.094-3.094s-1.406-3.094-3.094-3.094h-4.031V6.984h4.031zm-9 6v-1.969h7.969v1.969H8.016zM3.891 12c0 1.688 1.406 3.094 3.094 3.094h4.031v1.922H6.985c-2.766 0-4.969-2.25-4.969-5.016s2.203-5.016 4.969-5.016h4.031v1.922H6.985c-1.688 0-3.094 1.406-3.094 3.094z"/></symbol><symbol id="linkedin"><path d="M5 3c0 1.062-.71 1.976-2.001 1.976C1.784 4.976 1 4.114 1 3.052 1 1.962 1.76 1 3 1s1.976.91 2 2zM1 19V6h4v13H1zM7 10.444c0-1.545-.051-2.836-.102-3.951h3.594l.178 1.723h.076c.506-.811 1.746-2 3.822-2C17.1 6.216 19 7.911 19 11.558V19h-4v-6.861c0-1.594-.607-2.81-2-2.81-1.062 0-1.594.86-1.873 1.569-.102.254-.127.608-.127.963V19H7v-8.556z"/></symbol><symbol id="medium"><path d="M149.25 105.25V398.5c0 7.75-3.75 15-12.25 15-3 0-5.75-.75-8.25-2L12.5 353.25c-7-3.5-12.5-12.5-12.5-20v-285c0-6.25 3-12 9.75-12 4 0 7.5 2 11 3.75l127.75 64c.25.25.75 1 .75 1.25zm16 25.25L298.75 347l-133.5-66.5v-150zM448 135v263.5c0 8.25-4.75 14-13 14-4.25 0-8.25-1.25-11.75-3.25l-110.25-55zm-.75-30c0 1-129.25 210.75-139.25 226.75l-97.5-158.5 81-131.75c2.75-4.5 7.75-7 13-7 2.25 0 4.5.5 6.5 1.5l135.25 67.5c.5.25 1 .75 1 1.5z"/></symbol><symbol id="menu"><path d="M3 6h18v2.016H3V6zm0 6.984v-1.969h18v1.969H3zM3 18v-2.016h18V18H3z"/></symbol><symbol id="rss"><path d="M2.4 2.4v2.367c7.086 0 12.83 5.746 12.83 12.832h2.369C17.599 9.205 10.794 2.4 2.4 2.4zm0 4.737v2.369a8.093 8.093 0 0 1 8.093 8.094h2.368c0-5.778-4.684-10.463-10.461-10.463zm2.269 5.922a2.271 2.271 0 0 0 0 4.541c1.254 0 2.269-1.016 2.269-2.27s-1.015-2.271-2.269-2.271z"/></symbol><symbol id="twitter"><path d="M17.316 6.246c.008.162.011.326.011.488 0 4.99-3.797 10.742-10.74 10.742-2.133 0-4.116-.625-5.787-1.697a7.577 7.577 0 0 0 5.588-1.562 3.779 3.779 0 0 1-3.526-2.621 3.858 3.858 0 0 0 1.705-.065 3.779 3.779 0 0 1-3.028-3.703v-.047a3.766 3.766 0 0 0 1.71.473 3.775 3.775 0 0 1-1.168-5.041 10.716 10.716 0 0 0 7.781 3.945 3.813 3.813 0 0 1-.097-.861 3.773 3.773 0 0 1 3.774-3.773 3.77 3.77 0 0 1 2.756 1.191 7.602 7.602 0 0 0 2.397-.916 3.789 3.789 0 0 1-1.66 2.088 7.55 7.55 0 0 0 2.168-.594 7.623 7.623 0 0 1-1.884 1.953z"/></symbol></svg>