<?xml version="1.0" encoding="utf-8"?>
<!-- Generator: Adobe Illustrator 19.2.1, SVG Export Plug-In . SVG Version: 6.00 Build 0)  -->
<svg version="1.1" id="Layer_1" xmlns="http://www.w3.org/2000/svg" xmlns:xlink="http://www.w3.org/1999/xlink" x="0px" y="0px"
	 viewBox="0 0 140 30" style="enable-background:new 0 0 140 30;" xml:space="preserve">
<g>
	<path d="M0,8.5h2.6V7.4c0-3.3,1.4-6.2,5.5-6.2c1.2,0,2.4,0.3,3.1,0.8l-1,2C9.6,3.7,9,3.5,8.1,3.5c-2.5,0-2.9,1.2-2.9,3.9v1.1h3.9
		v2.3H5.2v11.8H2.6V10.8H0V8.5z"/>
	<path d="M22.6,20.6c-1.6,1.6-3.3,2.4-5.8,2.4c-2,0-3.5-0.6-4.5-1.5c-1.2-1.2-1.8-2.8-1.8-5.6c0-2.3,0.4-4.7,1.7-6.2
		c0.9-1.1,2.4-1.9,4.7-1.9c4.2,0,5.8,2.8,5.8,6.2c0,0.5,0,1.2-0.1,1.8l-9.3,0.1c0.1,3,0.5,4.9,3.5,4.9c1.8,0,3.2-0.6,4.3-1.8
		L22.6,20.6z M20.1,13.7c0-2.4-0.5-3.8-3.1-3.8c-2.7,0-3.4,1.5-3.6,3.8L20.1,13.7z"/>
	<path d="M28.4,0.3v22.3h-2.6V0.3H28.4z"/>
	<path d="M35.1,8.1v14.6h-2.6V8.1H35.1z"/>
	<path d="M41.6,8.1v2.6c0.9-1.8,2.8-2.9,4.8-2.9c1.5,0,2.6,0.6,3.3,1.4c1.3,1.4,1.7,3.7,1.7,6c0,2.7-0.5,5.1-2.1,6.5
		c-0.9,0.8-2.2,1.3-3.8,1.3c-1.4,0-3-0.4-4-1.8v8.5H39V8.1H41.6z M43,11.6c-1,1.3-1.4,2.9-1.4,4.6c0,1.4,0.2,2.6,0.9,3.4
		c0.6,0.7,1.6,1.1,2.9,1.1c2.5,0,3.3-1.6,3.3-5.4c0-3.6-0.8-5.2-2.7-5.2C44.8,10.1,43.7,10.6,43,11.6z"/>
	<path d="M66.2,20.6c-1.6,1.6-3.3,2.4-5.8,2.4c-2,0-3.5-0.6-4.5-1.5c-1.2-1.2-1.8-2.8-1.8-5.6c0-2.3,0.4-4.7,1.7-6.2
		c0.9-1.1,2.4-1.9,4.7-1.9c4.2,0,5.8,2.8,5.8,6.2c0,0.5,0,1.2-0.1,1.8l-9.3,0.1c0.1,3,0.5,4.9,3.5,4.9c1.8,0,3.2-0.6,4.3-1.8
		L66.2,20.6z M63.7,13.7c0-2.4-0.5-3.8-3.1-3.8c-2.7,0-3.4,1.5-3.6,3.8L63.7,13.7z"/>
	<path d="M75,8.5h2.6v-1c0-3.5,1.2-6.4,6.6-6.4c2,0,3.5,0.4,4.8,1.3l-1,2c-1.1-0.7-2.3-1-4-1c-3.4,0-3.8,1.4-3.8,4v1.1H89v14.1h-2.6
		V10.8h-6.1v11.8h-2.6V10.8H75V8.5z"/>
	<path d="M92.4,9.8c1.4-1.5,3.2-2,5.3-2c3.6,0,5.5,1.5,5.5,5.3v9.5h-2.4l0-2.4C99.8,22.1,98,23,96.1,23c-1.3,0-2.4-0.4-3.1-1.1
		c-0.8-0.7-1.2-1.8-1.2-3.1c0-1.7,0.6-2.7,1.7-3.5c1.3-0.9,3-1.2,5.1-1.2h2.1v-0.7c0-2.5-0.8-3.3-3-3.3c-1.6,0-2.7,0.4-3.8,1.5
		L92.4,9.8z M98.3,16c-2.3,0-3.8,0.4-3.8,2.6c0,1.4,0.5,2.2,2,2.2c1.9,0,4.1-1.4,4.2-4.8H98.3z"/>
	<path d="M109.3,0.3v22.3h-2.6V0.3H109.3z"/>
	<path d="M115.6,0.3v10.6c0.6-1.8,2.3-3.2,4.6-3.2c2.7,0,4.2,1.8,4.2,4.8v10.1h-2.6v-9.6c0-1.9-0.5-2.9-2-2.9c-2.1,0-4.2,2-4.2,7.4
		v5.1h-2.6V0.3H115.6z"/>
	<path d="M138.2,21.1c-1.1,1.2-2.5,1.9-4.8,1.9c-2.2,0-3.6-0.7-4.6-1.8c-1.3-1.4-1.6-3.1-1.6-5.6c0-2.7,0.4-4.5,1.8-6
		c1.1-1.2,2.6-1.9,4.8-1.9c2.2,0,3.6,0.7,4.6,1.8c1.3,1.4,1.6,3.2,1.6,5.7C140,17.8,139.6,19.5,138.2,21.1z M136.2,10.9
		c-0.5-0.5-1.2-0.9-2.6-0.9c-1.5,0-2.2,0.5-2.6,1c-0.8,1-1.1,2.7-1.1,4.5c0,2.1,0.3,3.4,1,4.3c0.4,0.5,1.3,0.9,2.5,0.9
		c1.5,0,2.2-0.5,2.7-1c0.8-1,1.1-2.6,1.1-4.4C137.3,13.4,137,11.8,136.2,10.9z"/>
</g>
</svg>
