<?xml version="1.0" standalone="no"?>
<!DOCTYPE svg PUBLIC "-//W3C//DTD SVG 1.1//EN" "http://www.w3.org/Graphics/SVG/1.1/DTD/svg11.dtd" >
<svg xmlns="http://www.w3.org/2000/svg">
<metadata></metadata>
<defs>
<font id="lobster_twobold_italic" horiz-adv-x="1077" >
<font-face units-per-em="2048" ascent="1638" descent="-410" />
<missing-glyph horiz-adv-x="440" />
<glyph unicode="&#xfb01;" horiz-adv-x="1091" d="M-391 -283q0 53 21 96.5t51.5 72t82 55t93.5 41.5t106 34l227 1078q93 440 480 440q366 0 366 -236q0 -86 -46 -125.5t-116 -39.5q-122 0 -122 110q0 37 19.5 68.5t49.5 31.5q15 0 17 -2q-1 39 -32 60.5t-81 21.5q-168 0 -217 -231l-35 -168h164l-16 -82h-164l-234 -1106 q-21 -101 -62 -173t-93 -108t-101.5 -51.5t-103.5 -15.5q-114 0 -184 62t-70 167zM-279 -248q0 -32 17.5 -52t34 -25t32.5 -5q35 0 68.5 39.5t50.5 120.5l25 119q-102 -32 -165 -83.5t-63 -113.5zM563 233q0 51 17 134l139 657h295l-148 -696q-8 -36 -8 -66q0 -42 20 -59 t64 -17q59 0 109.5 51.5t74.5 129.5h86q-33 -95 -79 -167t-90.5 -111t-95.5 -63t-88.5 -31t-76.5 -7q-98 0 -158.5 61t-60.5 184z" />
<glyph unicode="&#xfb02;" horiz-adv-x="1122" d="M-391 -291q0 55 19.5 99t48 73t79 55.5t94.5 42.5t113 37l246 1170q18 84 50 148t69 101t83 60.5t86.5 31t84.5 7.5q86 0 185.5 -22t170.5 -47.5t186 -71.5l-225 -1065q-8 -36 -8 -66q0 -42 20 -59t64 -17q59 0 109.5 51.5t74.5 129.5h86q-33 -95 -79 -167t-90.5 -111 t-95.5 -63t-88.5 -31t-76.5 -7q-98 0 -158.5 61t-60.5 184q0 56 16 134l213 1005q-35 15 -88 24t-80 9q-105 0 -139 -162l-45 -219h191l-17 -82h-190l-234 -1106q-18 -84 -50 -148t-68.5 -101.5t-82.5 -60.5t-86.5 -30.5t-85.5 -7.5q-97 0 -169 62t-72 159zM-279 -262 q0 -23 25 -45.5t57 -22.5q36 0 70 38.5t51 121.5l25 119q-109 -36 -168.5 -85t-59.5 -126z" />
<glyph unicode="&#xfb03;" horiz-adv-x="1566" d="M-391 -291q0 55 19.5 99t48 73t79 55.5t94.5 42.5t113 37l246 1170q18 84 50 148t68.5 101.5t82.5 60.5t86.5 30.5t85.5 7.5q170 0 252 -107q119 107 309 107q366 0 366 -236q0 -86 -45.5 -125.5t-115.5 -39.5q-52 0 -87.5 25t-35.5 85q0 37 19.5 68.5t49.5 31.5 q15 0 17 -2q-1 39 -32 60.5t-81 21.5q-168 0 -217 -231l-35 -168h543l-148 -696q-8 -36 -8 -66q0 -42 20 -59t64 -17q59 0 110 51.5t75 129.5h86q-33 -95 -79.5 -167t-90.5 -111t-95.5 -63t-89 -31t-76.5 -7q-98 0 -158.5 61t-60.5 184q0 51 17 134l121 575h-246l-234 -1106 q-21 -101 -62 -173t-93 -108t-101.5 -51.5t-103.5 -15.5q-75 0 -133.5 29t-89.5 80q-99 -109 -263 -109q-97 0 -169 62t-72 159zM-266 -262q0 -23 25 -45.5t57 -22.5q36 0 70 38.5t51 121.5l24 119q-109 -36 -168 -85t-59 -126zM182 -293q5 -36 29 -50.5t47 -14.5 q45 0 81.5 45.5t57.5 142.5l47 223l-182 -37l-39 -180q-13 -65 -41 -129zM274 74l181 30l176 838h-172zM475 1024h174l15 70q32 153 102 256q-31 34 -82 34q-78 0 -119.5 -56t-56.5 -136z" />
<glyph unicode="&#xfb04;" horiz-adv-x="1597" d="M-391 -291q0 55 19.5 99t48 73t79 55.5t94.5 42.5t113 37l246 1170q18 84 50 148t68.5 101.5t82.5 60.5t86.5 30.5t85.5 7.5q152 0 235 -86q94 86 240 86q86 0 185.5 -22t170.5 -47.5t186 -71.5l-225 -1065q-8 -36 -8 -66q0 -42 20 -59t64 -17q59 0 109.5 51.5 t74.5 129.5h86q-33 -95 -79 -167t-90.5 -111t-95.5 -63t-88.5 -31t-76.5 -7q-98 0 -158.5 61t-60.5 184q0 56 16 134l213 1005q-35 15 -87.5 24t-79.5 9q-43 0 -82 -35t-58 -127l-45 -219h191l-17 -82h-190l-236 -1106q-21 -101 -62 -173t-93 -108t-101.5 -51.5 t-103.5 -15.5q-76 0 -134 29t-89 82q-101 -111 -263 -111q-97 0 -169 62t-72 159zM-266 -262q0 -23 25 -45.5t57 -22.5q36 0 70 38.5t51 121.5l24 119q-109 -36 -168 -85t-59 -126zM182 -291q4 -37 28.5 -52t47.5 -15q45 0 81.5 45.5t57.5 142.5l47 223l-182 -37l-39 -180 q-13 -63 -41 -127zM274 74l181 30l178 838h-174zM475 1024h174l35 162q19 99 66 178q-27 20 -66 20q-78 0 -119.5 -56t-56.5 -136z" />
<glyph horiz-adv-x="2048" />
<glyph horiz-adv-x="2048" />
<glyph unicode="&#xd;" horiz-adv-x="2048" />
<glyph unicode=" "  horiz-adv-x="440" />
<glyph unicode="&#x09;" horiz-adv-x="440" />
<glyph unicode="&#xa0;" horiz-adv-x="440" />
<glyph unicode="!" horiz-adv-x="552" d="M14 164q0 67 48 114.5t116 47.5t115 -47t47 -115t-47.5 -116t-114.5 -48q-68 0 -116 48t-48 116zM145 473l146 961h295l-267 -961h-174z" />
<glyph unicode="&#x22;" horiz-adv-x="722" d="M190 1149l125 387h215l-186 -387h-154zM512 1149l125 387h215l-186 -387h-154z" />
<glyph unicode="#" horiz-adv-x="1110" d="M-2 227l43 209h213l43 232h-209l43 209h203l106 593h181l-134 -593h215l107 593h180l-133 -593h213l-41 -209h-217l-51 -232h219l-41 -209h-225l-62 -282h-116l51 282h-242l-61 -282h-117l51 282h-219zM391 436h232l43 232h-224z" />
<glyph unicode="$" horiz-adv-x="794" d="M47 446q0 88 43 136.5t109 48.5q37 0 60.5 -15t23.5 -36q-43 -7 -62.5 -50t-19.5 -92q0 -50 21 -81.5t65 -53.5l73 402q-16 14 -49 39.5t-51.5 41t-44 41t-39 46.5t-23.5 50.5t-10 61.5q0 109 98 186t218 82l39 217h118l-51 -223q83 -14 130.5 -53t47.5 -123 q0 -63 -26 -106t-74 -43q-40 0 -78 47q24 14 36.5 42.5t12.5 57.5q0 69 -65 96l-74 -329q80 -55 125 -96t76 -98.5t31 -125.5q0 -138 -105 -216.5t-264 -80.5l-59 -274h-56l49 276q-97 7 -161 62t-64 163zM338 1026q0 -70 57 -127l49 277q-55 -11 -80.5 -54.5t-25.5 -95.5z M356 295q69 8 102.5 59t33.5 121q0 86 -60 160z" />
<glyph unicode="%" horiz-adv-x="1275" d="M141 999q0 187 91 313t241 126q87 0 127.5 -58.5t40.5 -173.5q0 -68 -20.5 -142.5t-57 -142t-96 -111.5t-129.5 -44q-113 0 -155 57t-42 176zM170 0l791 1536h147l-791 -1536h-147zM289 975q0 -133 55 -133q53 0 93 56t60.5 145t20.5 194q0 62 -10.5 95.5t-40.5 33.5 q-50 0 -106.5 -83.5t-67.5 -219.5q-4 -50 -4 -88zM649 233q0 187 91 313t241 126q90 0 139 -60t49 -172q0 -55 -10.5 -112.5t-35 -117t-60.5 -106t-92.5 -75.5t-124.5 -29q-113 0 -155 57t-42 176zM786 209q0 -133 56 -133q53 0 91.5 52.5t57.5 138t19 190.5q0 60 -14 99.5 t-44 39.5q-49 0 -99.5 -81t-61.5 -218q-5 -63 -5 -88z" />
<glyph unicode="&#x26;" horiz-adv-x="1378" d="M18 324q0 110 44.5 219.5t133 196.5t201.5 114q-125 89 -125 246q0 106 56.5 206.5t161.5 167t231 66.5q127 0 210 -67.5t83 -188.5q0 -91 -44.5 -152t-107.5 -61q-55 0 -96 55q37 12 63.5 68t26.5 111q0 58 -33 86t-80 28q-88 0 -148 -88.5t-60 -200.5q0 -97 51 -171.5 t155 -102.5q-79 -18 -149 -70.5t-116.5 -122t-73.5 -147.5t-27 -149q0 -93 47.5 -150t146.5 -57q168 0 273.5 96.5t167.5 300.5q-25 1 -79 6.5t-81 5.5q-134 0 -193 -92l-14 2q32 130 136.5 209.5t258.5 79.5q29 0 80 -5t76 -5q62 0 116 22.5t79 65.5h12q0 -89 -96 -178 t-222 -107q-39 -168 -134.5 -302.5t-240.5 -215t-313 -80.5q-95 0 -169 29t-118.5 79.5t-67 114.5t-22.5 138z" />
<glyph unicode="'" horiz-adv-x="401" d="M190 1149l125 387h215l-186 -387h-154z" />
<glyph unicode="(" horiz-adv-x="575" d="M25 205q0 200 48 406.5t133 386.5t211.5 323.5t274.5 214.5l27 -82q-148 -74 -275 -284t-198.5 -483t-71.5 -537q0 -381 150 -603l-68 -59q-116 128 -173.5 314t-57.5 403z" />
<glyph unicode=")" horiz-adv-x="575" d="M-203 -430q148 74 275 283t198.5 482.5t71.5 538.5q0 382 -149 603l67 59q116 -128 174 -314t58 -403q0 -270 -81 -538t-235.5 -483t-351.5 -310z" />
<glyph unicode="*" horiz-adv-x="843" d="M180 1026l223 129l-223 129l62 107l219 -127v276h131v-276l219 127l61 -107l-223 -129l223 -129l-61 -106l-219 127v-277h-131v277l-219 -127z" />
<glyph unicode="+" horiz-adv-x="905" d="M25 420l49 229h262l55 250h232l-56 -250h260l-47 -229h-262l-55 -252h-232l56 252h-262z" />
<glyph unicode="," horiz-adv-x="475" d="M-18 154q0 68 47 115.5t114 47.5q66 0 103 -43t37 -112q0 -97 -73 -216.5t-194 -203.5q-18 13 -18 35q0 37 47 98.5t47 99.5q0 14 -11.5 27.5t-27.5 27t-32 29.5t-27.5 41t-11.5 54z" />
<glyph unicode="-" horiz-adv-x="657" d="M80 455l37 161h409l-34 -161h-412z" />
<glyph unicode="." horiz-adv-x="491" d="M-18 154q0 68 47 115.5t114 47.5q68 0 116 -48t48 -115t-48 -114.5t-116 -47.5q-67 0 -114 47t-47 115z" />
<glyph unicode="/" horiz-adv-x="444" d="M-98 -512l434 2048h147l-434 -2048h-147z" />
<glyph unicode="0" horiz-adv-x="1224" d="M100 510q0 212 50 399.5t139.5 326t221 219.5t286.5 81q379 0 379 -510q0 -94 -12 -193t-39 -201t-66 -195t-96.5 -175.5t-126.5 -143t-160.5 -95.5t-194.5 -35q-90 0 -158 27t-110 73t-68 114.5t-35.5 142t-9.5 165.5zM412 451q0 -273 137 -273q102 0 186 144t128 363 t44 454q0 59 -4 100t-14.5 78.5t-31.5 56.5t-54 19q-104 0 -195.5 -138.5t-143.5 -355.5t-52 -448z" />
<glyph unicode="1" horiz-adv-x="686" d="M92 0l258 1225h-194l37 147q112 0 233 31t287 129l-326 -1532h-295z" />
<glyph unicode="2" horiz-adv-x="1083" d="M20 61q0 88 37 175t96.5 162t131.5 150t144 152.5t131.5 157t96.5 175.5t37 196q0 95 -35 138.5t-112 43.5q-144 0 -144 -147q0 -31 7 -59.5t25 -53.5t46 -33q-75 -69 -155 -69q-64 0 -106 45.5t-42 132.5q0 58 23.5 110.5t71 97.5t132 72t195.5 27q389 0 389 -332 q0 -95 -32.5 -183.5t-87.5 -159.5t-122.5 -136t-142 -125t-141 -115t-125 -116.5t-88.5 -118.5q4 0 12 1t12 1q49 0 179 -18.5t202 -18.5t122 16.5t83 44t76 80.5q2 -33 2 -90q0 -79 -10 -129t-37.5 -87.5t-78.5 -54t-132 -16.5q-94 0 -243 37t-251 37q-21 0 -51 -10.5 t-63.5 -26.5t-46.5 -20q-5 29 -5 67z" />
<glyph unicode="3" horiz-adv-x="1105" d="M23 338q0 132 64 212.5t183 80.5q138 0 160 -105q-52 0 -89.5 -18.5t-56 -49t-26.5 -61.5t-8 -65q0 -57 15 -95t42.5 -55.5t54.5 -23.5t64 -6q78 0 139.5 52.5t93 134t31.5 173.5q0 132 -69 230t-203 114q164 45 257 157t93 228q0 74 -40.5 122t-115.5 48t-118 -38 t-43 -109q0 -49 19 -92t58 -54q-75 -69 -155 -69q-64 0 -106 46.5t-42 127.5q0 138 121.5 224.5t302.5 86.5t281 -86t100 -213q0 -106 -72 -209.5t-208 -171.5q129 -45 193.5 -140.5t64.5 -217.5q0 -90 -42 -180t-115 -163t-184 -119t-237 -46q-44 0 -88.5 5.5t-105 27.5 t-105 57.5t-76.5 102.5t-32 157z" />
<glyph unicode="4" horiz-adv-x="1038" d="M20 553q23 69 79 178.5t104.5 200t87.5 210t39 222.5q0 54 -25 172q100 0 163.5 -51.5t63.5 -165.5q0 -75 -31 -160t-69 -147.5t-95 -152.5t-85 -144h299l168 780l303 41l-176 -821h131l-41 -162h-125l-117 -553h-295l117 553h-496z" />
<glyph unicode="5" horiz-adv-x="1079" d="M29 285q0 77 24 135.5t63.5 91t84.5 48t94 15.5q125 0 145 -104q-88 -10 -137 -48.5t-49 -119.5q0 -80 46 -122t120 -42q85 0 148 58.5t91.5 142.5t28.5 176q0 133 -62.5 209t-166.5 76q-122 0 -305 -115l168 817q38 -4 100 -12t97.5 -12t83 -7.5t87.5 -3.5q164 0 332 66 q4 -46 4 -68q0 -107 -56 -172t-179 -65q-64 0 -195.5 24.5t-146.5 26.5l-82 -371q134 64 256 64q90 0 160.5 -34t113 -93t64.5 -134.5t22 -162.5q0 -110 -35 -208t-104 -178t-185 -127.5t-266 -47.5q-364 0 -364 297z" />
<glyph unicode="6" horiz-adv-x="1142" d="M84 428q0 134 22.5 268t64 257t105.5 229.5t143 185t181 123.5t215 45q129 0 199.5 -49.5t70.5 -118.5q0 -52 -35 -99.5t-98 -47.5q-13 0 -49 8q37 32 37 86q0 44 -34.5 71t-86.5 27q-91 0 -177.5 -91t-146.5 -230.5t-96.5 -307t-36.5 -319.5q0 -157 41 -224t129 -67 q59 0 108.5 28t81.5 72t54 100t31.5 109.5t9.5 102.5q0 102 -40.5 153.5t-98.5 51.5q-53 0 -88 -38t-35 -91q0 -23 6 -44q-102 0 -102 91q0 86 87.5 162.5t219.5 76.5q76 0 133.5 -29t90 -79t48 -110.5t15.5 -131.5q0 -91 -24 -178.5t-73.5 -165.5t-118.5 -137.5t-165 -94 t-207 -34.5t-187 30t-117.5 90t-59 136.5t-17.5 183.5z" />
<glyph unicode="7" horiz-adv-x="1021" d="M170 1350q0 56 18.5 94t53.5 57t75 26t95 7q87 0 299 -25.5t305 -25.5q89 0 168 16q0 -31 -34 -90.5t-88.5 -136t-120 -168.5t-131.5 -198t-120.5 -212.5t-88.5 -225t-34 -224.5q0 -90 35 -230q-65 -32 -129 -32q-104 0 -156.5 71.5t-52.5 202.5q0 108 63 236.5 t152.5 242t179 217.5t152.5 192.5t63 137.5q-62 14 -160.5 26.5t-168.5 12.5q-235 0 -248 -158q-56 2 -91.5 54t-35.5 133z" />
<glyph unicode="8" horiz-adv-x="1136" d="M41 387q0 95 38.5 185.5t124.5 168.5t206 113q-88 51 -131 123.5t-43 155.5q0 74 33 146t91.5 129.5t149 92.5t195.5 35q173 0 273.5 -86.5t100.5 -212.5q0 -108 -74.5 -212.5t-211.5 -170.5q120 -38 183.5 -129t63.5 -203q0 -92 -43 -187t-116 -172t-182 -126t-230 -49 q-100 0 -182 33t-135 88.5t-82 127t-29 150.5zM322 385q0 -92 46 -158.5t119 -66.5q64 0 126 51.5t99.5 130.5t37.5 156q0 93 -54.5 167t-126.5 109q-114 -48 -180.5 -162.5t-66.5 -226.5zM504 1167q0 -70 27 -134.5t81 -108.5q99 65 158 163t59 189q0 67 -31.5 111.5 t-92.5 44.5q-83 0 -142 -79t-59 -186z" />
<glyph unicode="9" horiz-adv-x="1138" d="M133 193q0 30 8 56t26.5 50t55 38.5t86.5 14.5q-28 -28 -28 -69q0 -43 28.5 -79t93.5 -36q14 0 30.5 2.5t55.5 19t73.5 45.5t77.5 91.5t75.5 146.5t60 220t37.5 304q4 78 4 109q0 166 -43.5 235.5t-120.5 69.5q-79 0 -143.5 -61.5t-98.5 -157.5t-34 -201q0 -35 4.5 -68 t16 -71t38.5 -61t66 -23q50 0 94 37.5t68 103.5q49 -30 49 -98q0 -79 -83.5 -132.5t-191.5 -53.5q-76 0 -134.5 30.5t-92.5 82.5t-51 116t-17 137q0 149 65 272.5t189.5 198t284.5 74.5q224 0 320 -117.5t96 -349.5q0 -206 -52.5 -401t-144 -345t-224.5 -241.5t-284 -91.5 q-131 0 -195.5 59t-64.5 144z" />
<glyph unicode=":" horiz-adv-x="563" d="M41 276q0 68 47.5 116t114.5 48t115.5 -48t48.5 -116q0 -67 -48 -114t-116 -47t-115 47t-47 114zM143 768q0 68 47.5 116t114.5 48t115.5 -48t48.5 -116q0 -67 -48 -114.5t-116 -47.5q-67 0 -114.5 47t-47.5 115z" />
<glyph unicode=";" horiz-adv-x="550" d="M23 186q0 68 47 116t114 48q66 0 103 -43t37 -112q0 -97 -73 -216.5t-194 -203.5q-18 13 -18 35q0 37 47 98.5t47 99.5q0 16 -17 34.5t-38 34t-38 44.5t-17 65zM121 678q0 68 47.5 116t114.5 48t115 -48t48 -116q0 -67 -47.5 -114.5t-115.5 -47.5q-67 0 -114.5 47 t-47.5 115z" />
<glyph unicode="&#x3c;" horiz-adv-x="733" d="M14 487l19 84l629 308l-21 -113l-494 -246l398 -196l-25 -117z" />
<glyph unicode="=" horiz-adv-x="1024" d="M41 207l49 229h754l-47 -229h-756zM131 647l49 230h754l-47 -230h-756z" />
<glyph unicode="&#x3e;" horiz-adv-x="741" d="M23 207l28 117l492 196l-398 246l19 113l504 -308l-23 -110z" />
<glyph unicode="?" horiz-adv-x="860" d="M135 164q0 67 48 114.5t116 47.5q67 0 114.5 -47t47.5 -115t-47.5 -116t-114.5 -48t-115.5 48t-48.5 116zM150 1104q0 56 24 111t73 105.5t138 82t205 31.5q91 0 154.5 -19t98 -56t49.5 -82.5t15 -105.5q0 -71 -22 -132.5t-58.5 -107.5t-81.5 -87t-94.5 -81t-94 -80.5 t-82.5 -94.5t-58 -113h-135q0 57 21 110.5t55 97.5t74.5 87t81.5 87t75 89t55 101.5t21 117.5q0 84 -35.5 121t-85.5 37q-63 0 -114.5 -48t-51.5 -120q0 -44 19.5 -85t58.5 -52q-26 -42 -66 -64t-84 -22q-64 0 -109.5 45t-45.5 127z" />
<glyph unicode="@" horiz-adv-x="1124" d="M33 336q0 219 94.5 404.5t255 293t348.5 107.5q44 0 82.5 -6t85 -26.5t79 -53.5t55 -94t22.5 -142q0 -130 -50 -256t-131.5 -205t-166.5 -79q-69 0 -93 53q-58 -86 -129 -86q-57 0 -88.5 45t-31.5 135q0 69 19 148t51.5 149t85 116t112.5 46q53 0 80 -35l8 31l113 -13 l-93 -393q-8 -32 -8 -47q0 -39 25 -39q28 0 70.5 64.5t75 164t32.5 183.5q0 46 -10.5 85t-33.5 73t-66 53.5t-101 19.5q-70 0 -136 -29t-118.5 -78t-97 -114.5t-74 -138t-45.5 -148.5t-16 -147q0 -289 272 -289q196 0 311 145q47 -20 47 -88q0 -98 -114.5 -160.5 t-302.5 -62.5q-61 0 -118 12.5t-112.5 43t-96.5 76.5t-66 118.5t-25 163.5zM483 459q0 -36 10.5 -64t32.5 -28q27 0 76 39q0 18 6 36l88 342q-18 21 -43 21q-44 0 -85.5 -65.5t-63 -145t-21.5 -135.5z" />
<glyph unicode="A" horiz-adv-x="1234" d="M-80 686q0 105 119 178.5t295 73.5q46 0 110 -6q80 127 166 233.5t178 191t188 132t185 47.5q87 0 158 -29l-322 -1507h-295l158 743q-137 62 -274 74q-116 -252 -191.5 -513t-75.5 -415q0 -78 29 -122q-31 0 -50.5 0.5t-51.5 5t-53 12.5t-45.5 24t-39 38.5t-24.5 57.5 t-10 79q0 137 83.5 367t217.5 466q-204 -13 -240 -106q8 0 17.5 -21.5t9.5 -42.5q0 -36 -33 -58t-82 -22q-55 0 -91 30.5t-36 88.5zM629 905q145 -28 250 -71l118 557q-170 -91 -368 -486z" />
<glyph unicode="B" horiz-adv-x="1394" d="M117 993q0 104 62 204t163.5 174t238.5 119.5t279 45.5q109 0 194.5 -27t137 -73.5t78 -103.5t26.5 -122q0 -94 -53.5 -181.5t-150.5 -143.5q123 -25 182 -115t59 -215q0 -64 -13 -137t-46.5 -155t-82.5 -147t-128.5 -108t-177.5 -43q-37 0 -69.5 6.5t-64.5 22 t-50.5 47.5t-18.5 76q0 49 27 119q71 -74 137 -74q53 0 94.5 35t64 91.5t33.5 117.5t11 124q0 261 -195 261q-29 0 -94 -7l-168 -784h-295l278 1303l304 40l-97 -454h13q79 0 148 51t108 127.5t39 153.5q0 96 -67 158.5t-204 62.5q-73 0 -145 -19t-138.5 -59.5t-117.5 -98 t-81 -140.5t-30 -181q0 -34 4 -60.5t8 -38.5t10 -24.5t7 -15.5q-219 0 -219 188z" />
<glyph unicode="C" horiz-adv-x="1038" d="M92 469q0 83 11 176t36.5 197.5t63.5 202t96.5 188t131 157t171.5 106.5t213 40q148 0 241 -68t93 -211q0 -83 -34.5 -133.5t-108.5 -50.5q-71 0 -117 53q37 19 65.5 75.5t28.5 111.5t-30 91t-87 36q-86 0 -168 -91t-139 -230t-92 -307.5t-35 -322.5q0 -79 10.5 -136 t36.5 -104t75 -71t122 -24q115 0 222 58.5t179 156.5l47 -21q-81 -180 -248 -280.5t-362 -100.5q-422 0 -422 502z" />
<glyph unicode="D" horiz-adv-x="1449" d="M117 995q0 103 61.5 202.5t163 173.5t241 119.5t287.5 45.5t257.5 -46t173 -129t94 -189.5t30.5 -237.5q0 -224 -77.5 -446.5t-210.5 -368.5t-279 -146q-124 0 -250 109l-16 -82h-295l278 1303l304 40l-246 -1148q55 -41 117 -41q87 0 163.5 83.5t125 214t76.5 282.5 t28 294q0 225 -76 319.5t-240 94.5q-142 0 -259 -58.5t-189 -173.5t-72 -266q0 -33 4 -60t8 -39t10 -24.5t7 -15.5q-219 0 -219 190z" />
<glyph unicode="E" horiz-adv-x="919" d="M27 324q0 110 44.5 219.5t133 196.5t201.5 114q-125 89 -125 246q0 79 33.5 157.5t91.5 141.5t143 102t180 39q127 0 210 -67.5t83 -188.5q0 -91 -44.5 -152t-107.5 -61q-55 0 -96 55q37 12 63.5 68t26.5 111q0 58 -32.5 86t-79.5 28q-88 0 -148.5 -88.5t-60.5 -200.5 q0 -96 51.5 -171t155.5 -103q-105 -23 -191 -105.5t-131 -185t-45 -198.5q0 -93 48 -150t147 -57q102 0 214 57t164 152l48 -21q-78 -177 -245.5 -281t-355.5 -104q-95 0 -168.5 29t-118 79.5t-67 114.5t-22.5 138z" />
<glyph unicode="F" horiz-adv-x="1144" d="M129 1012q0 102 41.5 194t121 166.5t211 119t296.5 44.5q71 0 184.5 -12.5t181.5 -12.5q108 0 187 25q-17 -78 -41.5 -129.5t-56 -75.5t-61 -32.5t-69.5 -8.5q-69 0 -254 37l-86 -405h299l-32 -152h-299l-166 -770h-295l295 1368q-60 -2 -106 -23t-83.5 -65.5 t-57.5 -124.5t-20 -192q0 -27 1.5 -49t3.5 -36t6 -27.5t6 -18.5t6.5 -15t5.5 -12q-113 0 -166 47t-53 160z" />
<glyph unicode="G" horiz-adv-x="1210" d="M102 731q0 125 32.5 243.5t96.5 220t151.5 178t205.5 120t250 43.5q76 0 142 -15t122 -46.5t88.5 -88t32.5 -133.5q0 -79 -35.5 -129.5t-108.5 -50.5q-95 0 -141 53q36 10 63 67.5t27 106.5q0 16 -4 32.5t-16.5 40.5t-44 39t-78.5 15q-124 0 -233.5 -104t-171.5 -263.5 t-62 -324.5q0 -155 55.5 -244.5t138.5 -89.5q92 0 182.5 115.5t145.5 341.5l242 -2l-168 -770q-54 -249 -170 -379.5t-322 -130.5q-88 0 -152 24t-98.5 65t-50.5 88.5t-16 103.5q0 55 15 104t46 89.5t86 64.5t127 24q176 0 176 -137q0 -36 -12 -82q-38 53 -119 53 q-71 0 -109 -46.5t-38 -110.5q0 -58 34.5 -98t104.5 -40q67 0 114.5 53t80.5 199l102 453q-123 -160 -311 -160q-178 0 -289 136.5t-111 371.5z" />
<glyph unicode="H" horiz-adv-x="1423" d="M115 993q0 140 108 267t273.5 201.5t334.5 74.5q30 0 84 -4l-131 -610h301l132 610h294l-325 -1532h-295l164 770h-301l-164 -770h-295l297 1393q-136 -56 -211.5 -171.5t-75.5 -275.5q0 -35 4 -62t8 -39t10 -24.5t7 -15.5q-219 0 -219 188z" />
<glyph unicode="I" horiz-adv-x="827" d="M115 993q0 140 108 267t273.5 201.5t334.5 74.5q30 0 84 -4l-325 -1532h-295l297 1391q-136 -57 -211.5 -171t-75.5 -274q0 -34 4 -61t8 -39t10 -25t7 -16q-219 0 -219 188z" />
<glyph unicode="J" horiz-adv-x="911" d="M-150 -139q0 55 15 103t46 88.5t86 63.5t128 23q176 0 176 -137q0 -36 -12 -82q-33 53 -121 53q-69 0 -107 -45t-38 -108q0 -66 41 -104t108 -38q65 0 108 52t76 200l322 1463q-136 -57 -212.5 -172.5t-76.5 -276.5q0 -34 4 -60.5t8 -38.5t10 -24.5t7 -15.5 q-219 0 -219 188q0 105 64.5 206t166.5 174t232 118t256 45h81l-307 -1454q-25 -117 -64.5 -206.5t-100 -158.5t-148 -105t-199.5 -36q-168 0 -249 77t-81 208z" />
<glyph unicode="K" horiz-adv-x="1325" d="M115 993q0 140 108 267t273.5 201.5t334.5 74.5q30 0 84 -4l-139 -653l496 647h190l-577 -656q15 0 37 1t30 1q149 0 208 -56.5t59 -160.5q0 -91 -50.5 -275.5t-50.5 -240.5q0 -51 21.5 -88t58.5 -51q-120 -35 -203 -35q-91 0 -125 38t-34 99q0 65 54 261.5t54 277.5 q0 139 -121 139q-19 0 -69 -8l-164 -772h-295l297 1393q-136 -56 -211.5 -171.5t-75.5 -275.5q0 -34 4 -61t8 -39t10 -25t7 -16q-219 0 -219 188z" />
<glyph unicode="L" horiz-adv-x="931" d="M111 973q0 140 108 267t273.5 201.5t334.5 74.5q17 0 84 -5l-315 -1470q68 -15 159.5 -60.5t166 -89.5t174 -79t190.5 -35q92 0 170 33q-38 -322 -227 -322q-72 0 -158 48t-171 116t-173.5 136.5t-193.5 116.5t-203 48q-31 0 -47 -2l305 1419q-136 -57 -211.5 -170.5 t-75.5 -273.5q0 -23 1.5 -43t4 -32.5t6 -25t6 -18t6.5 -13.5l5 -10q-219 0 -219 189z" />
<glyph unicode="M" horiz-adv-x="1617" d="M117 0l520 1407q-155 -52 -240.5 -170.5t-85.5 -290.5q0 -33 4 -60t8 -39.5t10 -26t7 -15.5q-219 0 -219 184q0 129 97 257t248.5 209t301.5 81q81 0 160 -29l-47 -1079l450 1079h295l-215 -1507h-295l131 920l-385 -920h-280l41 924l-342 -924h-164z" />
<glyph unicode="N" horiz-adv-x="1480" d="M125 1004q0 95 43 188t120 170.5t198.5 125.5t265.5 48q82 0 143 -29l240 -1087l243 1112h199l-348 -1532h-283l-237 1016l-234 -1016h-194l315 1395q-135 -54 -208 -166t-73 -279q0 -29 2 -52t6 -38t7 -24t8 -18.5t6 -12.5q-110 0 -164.5 46t-54.5 153z" />
<glyph unicode="O" horiz-adv-x="1427" d="M111 977q0 105 69.5 208t181.5 179.5t261.5 124t302.5 47.5q495 0 495 -518q0 -88 -13.5 -183.5t-43 -196t-72 -194t-104.5 -177t-136.5 -145.5t-172 -98t-207.5 -36q-373 0 -373 411q0 103 21.5 227t68 254.5t110 237t157 174.5t200.5 68q53 0 105 -17 q-89 -54 -174 -223.5t-135 -370.5t-50 -358q0 -109 29 -165t94 -56q74 0 151.5 84.5t137 216t97.5 301.5t38 332q0 183 -59.5 260.5t-212.5 77.5q-111 0 -215 -37t-185.5 -103t-130.5 -166t-49 -218q0 -77 20 -113q-101 0 -153.5 40.5t-52.5 131.5z" />
<glyph unicode="P" horiz-adv-x="1232" d="M117 993q0 140 107.5 267t277 201.5t348.5 74.5q114 0 205.5 -33t148 -90t86 -129.5t29.5 -153.5q0 -77 -25.5 -155t-77 -148t-121.5 -124.5t-165.5 -86.5t-202.5 -32h-10l-125 -584h-295l278 1303l304 40l-146 -684q99 8 183.5 87.5t130 194t45.5 230.5q0 271 -289 271 q-101 0 -190.5 -33t-158 -94.5t-108 -157t-39.5 -211.5q0 -24 1.5 -44.5t3.5 -33t6 -24t6 -16.5t6.5 -13t5.5 -10q-219 0 -219 188z" />
<glyph unicode="Q" horiz-adv-x="1429" d="M111 977q0 105 69.5 208t181.5 179.5t261.5 124t302.5 47.5q495 0 495 -518q0 -115 -23.5 -240t-69 -249.5t-122.5 -237t-174 -185.5q26 -38 47 -63t51.5 -51t68 -38.5t83.5 -12.5q17 0 49 4q-38 -100 -88.5 -138t-126.5 -38q-51 0 -91 14.5t-65.5 36t-46.5 57.5 t-31.5 65.5t-23.5 73.5q-89 -28 -186 -28q-373 0 -373 411q0 103 21.5 227t68 254.5t110 237t157 174.5t200.5 68q53 0 105 -17q-89 -54 -174 -223.5t-135 -370.5t-50 -358q0 -61 4 -88q78 19 127 19q93 0 166 -56q105 134 177.5 370.5t72.5 467.5q0 183 -59.5 260.5 t-212.5 77.5q-111 0 -215 -37t-185.5 -103t-130.5 -166t-49 -218q0 -27 2.5 -48.5t5 -30t7 -20.5t5.5 -14q-101 0 -153.5 40.5t-52.5 131.5zM623 238q29 -84 102 -84q38 0 74 20q-42 72 -117 72q-28 0 -59 -8z" />
<glyph unicode="R" horiz-adv-x="1343" d="M117 993q0 138 104.5 264.5t275.5 202.5t357 76q211 0 328.5 -96.5t117.5 -233.5q0 -96 -59.5 -192t-163.5 -156q144 -40 144 -203q0 -91 -50.5 -275.5t-50.5 -240.5q0 -51 21.5 -88t58.5 -51q-120 -35 -203 -35q-91 0 -125 38t-34 99q0 65 54 261.5t54 277.5 q0 139 -121 139q-15 0 -69 -8l-164 -772h-295l278 1303l304 40l-101 -473h17q81 0 149.5 56.5t104.5 139.5t36 167q0 209 -258 209q-143 0 -260 -58.5t-188.5 -173.5t-71.5 -266q0 -33 4 -60t8 -39t10 -24.5t7 -15.5q-219 0 -219 188z" />
<glyph unicode="S" d="M-2 309q0 80 26.5 145.5t70.5 106t96.5 62.5t107.5 22q65 0 117 -31.5t63 -103.5q-60 0 -113.5 -19.5t-91.5 -66t-38 -113.5q0 -80 53.5 -132t148.5 -52q106 0 171 70t65 196q0 96 -43.5 184t-105 155.5t-123 132.5t-105 143t-43.5 161q0 158 136.5 262.5t336.5 104.5 q37 0 72 -3.5t84.5 -18.5t85.5 -40t62 -72.5t26 -111.5q0 -90 -46 -148.5t-122 -58.5q-57 0 -94 43q41 24 66.5 74.5t25.5 102.5q0 60 -36.5 97.5t-115.5 37.5q-87 0 -137.5 -47.5t-50.5 -137.5q0 -61 25.5 -114.5t66 -96t90 -84.5t98.5 -90t89.5 -102t66 -130.5 t25.5 -166.5q0 -125 -48 -223.5t-129 -159t-183 -92t-216 -31.5q-91 0 -167 19.5t-137 59.5t-95.5 108t-34.5 159z" />
<glyph unicode="T" horiz-adv-x="1380" d="M127 1014q0 81 23.5 154.5t78 141t134.5 116.5t201.5 78.5t271.5 29.5q116 0 269 -23.5t232 -23.5q147 0 250 43q-3 -133 -67.5 -196.5t-194.5 -63.5q-111 0 -311 45l-283 -1315h-295l291 1356h-22q-86 0 -152.5 -19t-121.5 -63t-84.5 -125t-29.5 -197q0 -51 4.5 -79.5 t14.5 -48.5l10 -21q-114 0 -166.5 47t-52.5 164z" />
<glyph unicode="U" horiz-adv-x="1576" d="M113 993q0 85 42 167t116.5 149t171 118.5t212 80t232.5 28.5q44 0 98 -10q-32 -121 -74 -275t-64.5 -235.5t-49.5 -184t-40 -158.5t-26 -119.5t-17.5 -106t-4.5 -80.5q0 -36 0.5 -55t3.5 -44t9.5 -36.5t17.5 -25.5t29 -20t42.5 -10t58.5 -4q44 0 73 7t62 32.5t58 73 t55 128.5t60.5 199.5t66.5 286.5l137 633h289l-135 -639q-23 -111 -43.5 -195.5t-45.5 -169.5t-51 -147.5t-58.5 -122t-69.5 -100t-82.5 -75.5t-100 -55t-119 -31t-141.5 -11q-215 0 -305 82t-90 249q0 56 7 119t29.5 166.5t33 150.5t50 202t48.5 192l68 270 q-170 -45 -266.5 -167t-96.5 -304q0 -28 2 -50.5t6 -38t7 -23.5t8 -18t6 -11q-219 0 -219 188z" />
<glyph unicode="V" horiz-adv-x="1351" d="M113 993q0 140 108 267t273.5 201.5t334.5 74.5q30 0 84 -4l19 -1260l430 1254h143l-569 -1526h-295l-33 1399q-144 -53 -224.5 -170.5t-80.5 -282.5q0 -33 4 -60t8 -39.5t10 -26t7 -15.5q-219 0 -219 188z" />
<glyph unicode="W" horiz-adv-x="2060" d="M113 993q0 140 108 267t273.5 201.5t334.5 74.5q30 0 84 -4l19 -1260l430 1254h260l18 -1254l431 1254h143l-569 -1526h-295l-25 1042l-389 -1042h-295l-33 1399q-144 -53 -224.5 -170.5t-80.5 -282.5q0 -35 4 -62t8 -39t10 -24.5t7 -15.5q-219 0 -219 188z" />
<glyph unicode="X" horiz-adv-x="1372" d="M113 993q0 140 108 267t273.5 201.5t334.5 74.5q30 0 84 -4l136 -555l262 549h133l-354 -723l196 -803h-325l-144 565l-301 -565h-137l393 745l-164 654q-144 -53 -224.5 -170.5t-80.5 -282.5q0 -35 4 -62t8 -39t10 -24.5t7 -15.5q-219 0 -219 188z" />
<glyph unicode="Y" horiz-adv-x="1353" d="M113 993q0 140 108 267t273.5 201.5t334.5 74.5q30 0 84 -4l179 -733l303 727h135l-397 -895l-136 -631h-327l135 631l-197 768q-144 -53 -224.5 -170.5t-80.5 -282.5q0 -35 4 -62t8 -39t10 -24.5t7 -15.5q-219 0 -219 188z" />
<glyph unicode="Z" horiz-adv-x="1095" d="M16 0l717 1425q-18 0 -82 2.5t-102 2.5q-189 0 -189 -46q13 0 24 -16t11 -49q0 -61 -37.5 -89t-83.5 -28q-54 0 -79 36t-25 85q0 83 68 148t184 65h702l-706 -1403q25 0 92.5 -2t103.5 -2q180 0 213 45q-13 0 -24.5 15.5t-11.5 48.5q0 59 37 88.5t85 29.5q53 0 79 -35 t26 -83q0 -86 -73.5 -162t-188.5 -76h-740z" />
<glyph unicode="[" horiz-adv-x="610" d="M-98 -512l434 2048h416l-27 -127h-227l-381 -1794h227l-27 -127h-415z" />
<glyph unicode="\" d="M217 1536h148l434 -2048h-148z" />
<glyph unicode="]" horiz-adv-x="608" d="M-203 -512l27 127h227l381 1794h-227l26 127h416l-434 -2048h-416z" />
<glyph unicode="^" horiz-adv-x="862" d="M102 1149l435 387h43l122 -387h-65l-123 164l-321 -164h-91z" />
<glyph unicode="_" horiz-adv-x="907" d="M-43 0l37 162h717l-35 -162h-719z" />
<glyph unicode="`" horiz-adv-x="411" d="M49 1536h215l60 -387h-154z" />
<glyph unicode="a" d="M8 317q0 71 14.5 149.5t42.5 159t73.5 153.5t101.5 130t132.5 91t162.5 34q151 0 167 -106l21 96h297l-150 -696q-8 -36 -8 -66q0 -42 20 -59t64 -17q57 0 99 49.5t67 131.5h86q-33 -96 -77.5 -166t-85.5 -107.5t-90 -60t-84 -28t-75 -5.5q-84 0 -136 45.5t-64 132.5 q-123 -190 -305 -190q-43 0 -82 10.5t-74 35t-61 62t-41 94t-15 127.5zM311 346q0 -56 10 -91.5t28.5 -48.5t31.5 -16.5t33 -3.5q49 0 101 49t69 132l98 462q-2 27 -22 52.5t-62 25.5q-62 0 -118 -60t-91.5 -148.5t-56.5 -183t-21 -169.5z" />
<glyph unicode="b" horiz-adv-x="909" d="M20 250q0 52 15 117l219 1026l303 41l-98 -461q100 61 168 61q241 0 241 -354q0 -54 -8 -114t-27.5 -128t-48.5 -131t-74.5 -122t-101.5 -102t-133.5 -69t-167.5 -26q-139 0 -213 69t-74 193zM313 281q0 -95 109 -95q63 0 120 81t88.5 196.5t31.5 224.5q0 81 -28.5 139 t-80.5 58q-29 0 -67.5 -9.5t-53.5 -27.5l-113 -520q-6 -24 -6 -47z" />
<glyph unicode="c" horiz-adv-x="786" d="M8 313q0 53 8.5 113.5t28.5 131t49 137t74 129t99.5 108.5t130 74t161.5 28q65 0 111.5 -15.5t70.5 -42t34.5 -56.5t10.5 -66q0 -74 -31.5 -123t-76.5 -49q-43 0 -82 25q35 79 35 143q0 76 -58 76q-67 0 -131.5 -102t-101.5 -239.5t-37 -250.5q0 -99 38.5 -136.5 t117.5 -37.5q77 0 144.5 29.5t113 69.5t104.5 108h70q-236 -379 -563 -379q-151 0 -235.5 79t-84.5 246z" />
<glyph unicode="d" d="M8 317q0 71 14.5 149.5t42.5 159t73.5 153.5t101.5 130t132.5 91t162.5 34q153 0 167 -108l101 467l303 41l-236 -1106q-8 -36 -8 -66q0 -42 20 -59t64 -17q57 0 99 49.5t67 131.5h86q-33 -96 -77.5 -166t-85.5 -107.5t-90 -60t-84 -28t-75 -5.5q-84 0 -136 45.5 t-64 132.5q-123 -190 -305 -190q-43 0 -82 10.5t-74 35t-61 62t-41 94t-15 127.5zM311 346q0 -56 10 -91.5t28.5 -48.5t31.5 -16.5t33 -3.5q49 0 101 49t69 132l98 460q0 27 -20 53.5t-64 26.5q-62 0 -118 -60t-91.5 -148.5t-56.5 -183t-21 -169.5z" />
<glyph unicode="e" horiz-adv-x="786" d="M8 313q0 76 16.5 165t58 189t102 180.5t158.5 133.5t218 53q225 0 225 -196q0 -112 -66.5 -208t-174 -152.5t-230.5 -63.5q-4 -58 -4 -82q0 -100 35 -136t113 -36q77 0 144.5 29.5t113 69.5t104.5 108h70q-236 -379 -563 -379q-151 0 -235.5 79t-84.5 246zM332 512 q78 5 147 52t109.5 121.5t40.5 156.5q0 84 -51 84q-72 0 -141.5 -125.5t-104.5 -288.5z" />
<glyph unicode="f" horiz-adv-x="546" d="M-391 -291q0 55 19 99t47.5 73t78.5 55.5t94 42.5t113 37l248 1170q18 84 50 148t68.5 101.5t82.5 60.5t86.5 30.5t85.5 7.5q97 0 169 -62t72 -159q0 -47 -6 -84h-96q4 40 4 55q0 34 -22.5 52t-55.5 18q-43 0 -83 -38t-60 -130l-35 -162h149l-14 -82h-151l-236 -1106 q-72 -348 -367 -348q-97 0 -169 62t-72 159zM-279 -262q0 -23 25 -45.5t57 -22.5q81 0 117 160l27 119q-109 -36 -167.5 -85t-58.5 -126z" />
<glyph unicode="g" horiz-adv-x="1038" d="M8 358q0 81 20 170.5t63.5 180t103.5 162.5t149 117.5t191 45.5q31 0 54 -3.5t49 -13.5t42.5 -32.5t21.5 -56.5l21 96h295l-203 -950q98 35 157.5 99.5t100.5 193.5h86q-23 -78 -56.5 -140t-68.5 -101.5t-78.5 -69t-79.5 -45t-79 -27.5l-31 -148q-72 -348 -369 -348 q-99 0 -164 51.5t-65 147.5q0 203 334 305l39 174q-109 -137 -260 -137q-43 0 -82 10.5t-74 35t-61 62t-41 94t-15 127.5zM281 -285q0 -24 19 -45.5t50 -21.5q34 0 67 47.5t52 134.5l12 59q-200 -75 -200 -174zM311 387q0 -56 10 -91.5t28.5 -48.5t31.5 -16.5t33 -3.5 q50 0 104.5 48.5t73.5 132.5l90 423q-2 26 -22 51t-62 25q-62 0 -118 -55.5t-91.5 -137.5t-56.5 -169.5t-21 -157.5z" />
<glyph unicode="h" horiz-adv-x="1034" d="M-43 0l297 1393l303 41l-111 -516q100 114 240 114q104 0 165.5 -56.5t61.5 -174.5q0 -89 -49 -283.5t-49 -245.5q0 -86 82 -86q61 0 96.5 43t75.5 138h86q-33 -97 -73.5 -168t-78.5 -110.5t-81.5 -63t-76.5 -30.5t-71 -7q-124 0 -183 66.5t-59 164.5q0 71 46.5 264 t46.5 258q0 105 -74 105q-52 0 -93.5 -53t-66.5 -136l-139 -657h-295z" />
<glyph unicode="i" horiz-adv-x="546" d="M18 233q0 51 17 134l139 657h295l-147 -696q-9 -40 -9 -66q0 -42 20 -59t64 -17q59 0 110 51.5t75 129.5h86q-33 -95 -79 -167t-90.5 -111t-95.5 -63t-88.5 -31t-76.5 -7q-98 0 -159 61t-61 184zM215 1296q0 68 47.5 116t114.5 48t115.5 -48t48.5 -116q0 -67 -48 -114 t-116 -47t-115 47t-47 114z" />
<glyph unicode="j" horiz-adv-x="491" d="M-379 -313q0 204 336 305l219 1032h295l-203 -950q98 35 157.5 99.5t100.5 193.5h86q-23 -78 -56.5 -140t-68.5 -101.5t-78.5 -69t-79.5 -45t-79 -27.5l-31 -148q-72 -348 -369 -348q-99 0 -164 51.5t-65 147.5zM-266 -285q0 -24 19 -45.5t50 -21.5q34 0 67 47.5 t52 134.5l12 59q-200 -75 -200 -174zM199 1298q0 68 47 116t114 48q68 0 116 -48t48 -116q0 -67 -48 -114t-116 -47t-114.5 46.5t-46.5 114.5z" />
<glyph unicode="k" horiz-adv-x="1060" d="M-43 0l297 1393l303 41l-154 -721l396 311h202l-409 -285q52 9 67 9q109 0 167.5 -68t58.5 -172q0 -45 -20.5 -126t-20.5 -120q0 -76 80 -76q61 0 96.5 43t75.5 138h86q-33 -98 -75.5 -171t-80.5 -111.5t-82 -61.5t-74.5 -29t-64.5 -6q-126 0 -192 60t-66 173 q0 48 18.5 134t18.5 128q0 99 -74 99q-60 0 -152 -76l-106 -506h-295z" />
<glyph unicode="l" horiz-adv-x="546" d="M18 233q0 51 17 134l219 1026l303 41l-235 -1106q-9 -40 -9 -66q0 -42 20 -59t64 -17q59 0 110 51.5t75 129.5h86q-33 -95 -79 -167t-90.5 -111t-95.5 -63t-88.5 -31t-76.5 -7q-98 0 -159 61t-61 184z" />
<glyph unicode="m" horiz-adv-x="1540" d="M-43 0l217 1024h295l-23 -106q102 116 250 116q82 0 136 -40t73 -136q114 174 287 174q104 0 165.5 -56.5t61.5 -174.5q0 -89 -49 -283.5t-49 -245.5q0 -86 82 -86q61 0 96.5 43t75.5 138h86q-33 -97 -73.5 -168t-78.5 -110.5t-81.5 -63t-76.5 -30.5t-71 -7 q-124 0 -183 66.5t-59 164.5q0 71 46 264t46 258q0 105 -73 105q-52 0 -93.5 -53t-66.5 -136l-139 -657h-295l149 707q6 24 6 51q0 38 -15 64t-46 26q-56 0 -98 -53.5t-68 -137.5l-139 -657h-295z" />
<glyph unicode="n" horiz-adv-x="1034" d="M-43 0l217 1024h295l-23 -106q100 114 240 114q104 0 165.5 -56.5t61.5 -174.5q0 -89 -49 -283.5t-49 -245.5q0 -86 82 -86q61 0 96.5 43t75.5 138h86q-33 -97 -73.5 -168t-78.5 -110.5t-81.5 -63t-76.5 -30.5t-71 -7q-124 0 -183 66.5t-59 164.5q0 71 46.5 264t46.5 258 q0 105 -74 105q-52 0 -93.5 -53t-66.5 -136l-139 -657h-295z" />
<glyph unicode="o" horiz-adv-x="899" d="M6 311q0 63 12.5 136t38.5 156t71.5 158.5t105 137t146 98.5t187.5 37q259 0 262 -321q8 -2 23 -2q66 0 154.5 36.5t160.5 86.5l19 -56q-58 -62 -153.5 -106.5t-207.5 -63.5q-24 -282 -161.5 -451t-329.5 -169q-152 0 -240 78t-88 245zM311 346q0 -99 22.5 -132.5 t82.5 -33.5q76 0 145 121t92 301q-55 13 -55 86q0 41 17.5 69.5t46.5 39.5q-3 62 -21 88t-57 26q-68 0 -133.5 -100t-102.5 -231t-37 -234z" />
<glyph unicode="p" horiz-adv-x="958" d="M-152 -512l342 1612h295l-32 -154q102 88 239 88q114 0 182 -75.5t68 -247.5q0 -74 -10 -150t-32 -159.5t-61.5 -156t-93 -131t-132.5 -92.5t-175 -34q-131 0 -174 73l-106 -499zM297 213q16 -47 78 -47q61 0 112 39t82.5 99t53 136t30.5 145.5t9 131.5q0 170 -103 170 q-35 0 -74 -26.5t-67 -74.5z" />
<glyph unicode="q" horiz-adv-x="995" d="M8 317q0 71 14.5 149.5t42.5 159t73.5 153.5t101.5 130t132.5 91t162.5 34q29 0 52 -3.5t48.5 -12.5t42 -30.5t22.5 -53.5l21 90h295l-311 -1462l-310 -74l129 612q-105 -112 -243 -112q-43 0 -82 10.5t-74 35t-61 62t-41 94t-15 127.5zM311 346q0 -56 10 -91.5 t28.5 -48.5t31.5 -16.5t33 -3.5q43 0 89.5 39t69.5 107l107 506q-4 25 -24 47t-58 22q-62 0 -118 -60t-91.5 -148.5t-56.5 -183t-21 -169.5z" />
<glyph unicode="r" horiz-adv-x="770" d="M-43 0l217 1024h295l-29 -129q143 139 250 139q66 0 103.5 -45t37.5 -108q0 -60 -38.5 -105t-108.5 -45q-32 0 -50.5 13.5t-24 32t-9 37.5t-11 32.5t-24.5 13.5q-36 0 -70 -20.5t-79 -61.5l-164 -778h-295z" />
<glyph unicode="s" horiz-adv-x="782" d="M-31 250q0 67 31.5 117.5t77.5 72.5q138 244 252 607l303 40q11 -224 22.5 -387.5t17 -233.5t5.5 -124q0 -45 -8 -78q87 52 147 103h86q-127 -147 -313 -256q-60 -63 -147.5 -93t-174.5 -30q-75 0 -134.5 23t-94 61.5t-52.5 83.5t-18 94zM78 293q0 -73 29.5 -108 t95.5 -35q76 0 127 45.5t51 144.5q0 51 -14.5 186t-24.5 299q-51 -165 -166 -387q47 -21 47 -71q0 -39 -26 -70t-64 -31q-41 0 -55 27z" />
<glyph unicode="t" horiz-adv-x="546" d="M18 233q0 51 17 134l123 575h-68l16 82h68l62 283l303 41l-70 -324h123l-17 -82h-122l-131 -614q-9 -40 -9 -66q0 -42 20 -59t64 -17q59 0 110 51.5t75 129.5h86q-33 -95 -79 -167t-90.5 -111t-95.5 -63t-88.5 -31t-76.5 -7q-98 0 -159 61t-61 184z" />
<glyph unicode="u" horiz-adv-x="1034" d="M18 233q0 51 17 134l139 657h295l-147 -696q-7 -35 -7 -58q0 -84 62 -84q109 0 164 181l139 657h295l-148 -696q-8 -36 -8 -66q0 -42 20 -59t64 -17q57 0 99 49.5t67 131.5h86q-133 -379 -412 -379q-88 0 -140.5 49.5t-61.5 144.5q-118 -194 -303 -194q-98 0 -159 61 t-61 184z" />
<glyph unicode="v" horiz-adv-x="847" d="M16 229q0 45 11 99l147 696h295l-147 -696q-11 -53 -11 -74q0 -68 70 -68q58 0 114 49.5t98 127t75 169.5t50 181t17 157q-4 -9 -26 -14.5t-39 -5.5q-34 0 -54 33t-20 71q0 50 32.5 80.5t94.5 30.5q68 0 98.5 -50.5t30.5 -127.5q0 -85 -14.5 -180.5t-43.5 -198 t-77.5 -194.5t-111 -165.5t-149.5 -117t-188 -43.5q-120 0 -186 61t-66 180z" />
<glyph unicode="w" horiz-adv-x="1353" d="M18 233q0 51 17 134l139 657h295l-147 -696q-7 -28 -7 -52q0 -90 62 -90q109 0 164 181l139 657h295l-148 -696q-10 -48 -10 -74q0 -68 70 -68q58 0 114 49.5t98 127t75 169.5t50 181t17 157q-4 -9 -26 -14.5t-39 -5.5q-34 0 -54 33t-20 71q0 50 32.5 80.5t94.5 30.5 q68 0 98.5 -50.5t30.5 -127.5q0 -85 -14.5 -180.5t-43.5 -198t-77.5 -194.5t-111 -165.5t-149.5 -117t-188 -43.5t-164 43.5t-82 128.5q-117 -172 -290 -172q-98 0 -159 61t-61 184z" />
<glyph unicode="x" horiz-adv-x="1069" d="M35 367q20 98 48 186.5t70.5 178.5t94 155t121.5 106t149 41q58 0 101 -22.5t67 -61t36 -76.5t17 -83l19 -156q173 194 178 295q-24 -4 -35 -4q-96 0 -96 114q0 50 39.5 75.5t99.5 25.5q53 0 84 -57t31 -130q0 -89 -60.5 -177.5t-224.5 -268.5l19 -143q12 -98 42 -138.5 t85 -40.5q59 0 109.5 51.5t74.5 129.5h86q-32 -91 -75 -160.5t-85.5 -110t-91 -66t-87.5 -34t-79 -8.5q-192 0 -250 356l-282 -344h-148l414 467l-33 229q-14 99 -31.5 134.5t-46.5 35.5q-66 0 -144.5 -131t-129.5 -368h-86z" />
<glyph unicode="y" horiz-adv-x="995" d="M18 233q0 51 17 134l139 657h295l-147 -696q-7 -28 -7 -52q0 -90 62 -90q54 0 94.5 45.5t65.5 122.5l143 670h295l-203 -950q98 35 157.5 99.5t100.5 193.5h86q-23 -78 -56.5 -140t-68.5 -101.5t-78.5 -69t-79.5 -45t-79 -27.5l-31 -148q-72 -348 -369 -348 q-99 0 -164 51.5t-65 147.5q0 203 334 305l24 110q-102 -114 -245 -114q-98 0 -159 61t-61 184zM238 -285q0 -24 19 -45.5t50 -21.5q34 0 67 47.5t52 134.5l12 59q-200 -75 -200 -174z" />
<glyph unicode="z" horiz-adv-x="876" d="M35 0l522 913h-115q-56 0 -84 -6t-28 -26q0 -3 5.5 -5t11 -10.5t5.5 -29.5q0 -53 -33 -81t-77 -28q-38 0 -66.5 24t-28.5 66q0 71 68.5 139t169.5 68h526l-501 -866q7 0 65 -6.5t90 -6.5q90 0 97 41q-39 3 -39 43q0 32 30.5 60t83.5 28q44 0 67 -27.5t23 -70.5 q0 -79 -69.5 -149t-179.5 -70h-543z" />
<glyph unicode="{" horiz-adv-x="589" d="M-14 -287q0 76 29 174.5t64 178t64 174t29 163.5q0 64 -84 64q-24 0 -65 -6l24 117q44 -7 64 -7q37 0 63.5 15.5t40.5 36.5t22 55t9.5 59.5t1.5 61.5q0 58 -7.5 166t-7.5 159q0 50 12 103t40 109t69 100t105.5 72t142.5 28h88l-18 -102q-72 0 -114 -10t-73 -44 q-53 -58 -73.5 -125.5t-20.5 -156.5q0 -58 6 -175t6 -175q0 -160 -81 -228q24 -27 24 -74q0 -60 -29 -157t-63 -184t-63 -188.5t-29 -170.5q0 -31 1.5 -48.5t6.5 -39t16 -33t30 -23t49 -16t71 -4.5l-19 -92h-59q-132 0 -202 59.5t-70 163.5z" />
<glyph unicode="|" horiz-adv-x="643" d="M195 -512v2050h190v-2050h-190z" />
<glyph unicode="}" horiz-adv-x="587" d="M-164 -510l19 102q72 0 113.5 10t72.5 44q53 58 73.5 125.5t20.5 156.5q0 58 -6 175t-6 176q0 158 82 227q-25 29 -25 74q0 60 29 157t63.5 184t63.5 188.5t29 170.5q0 30 -1.5 48t-6.5 39.5t-16.5 33.5t-30.5 23t-49 15.5t-71 4.5l19 92h59q132 0 202.5 -60t70.5 -163 q0 -76 -29 -174.5t-64.5 -178t-64.5 -174t-29 -163.5q0 -64 84 -64q25 0 66 6l-25 -116q-38 6 -63 6q-37 0 -63.5 -15.5t-40.5 -36.5t-22 -55t-9.5 -59.5t-1.5 -61.5q0 -58 7 -166t7 -159q0 -50 -12 -103t-40 -109t-69 -100t-105.5 -72t-142.5 -28h-88z" />
<glyph unicode="~" horiz-adv-x="903" d="M176 1192q49 98 137 149.5t205 51.5q79 0 180.5 -34t157.5 -34q85 0 129 47l12 -2q-18 -75 -117 -140t-212 -65q-70 0 -180 38t-164 38q-80 0 -136 -53z" />
<glyph unicode="&#xa1;" horiz-adv-x="530" d="M-125 -508l266 961h174l-145 -961h-295zM121 762q0 68 47.5 116t114.5 48t115 -48t48 -116q0 -67 -47.5 -114.5t-115.5 -47.5q-67 0 -114.5 47t-47.5 115z" />
<glyph unicode="&#xa2;" horiz-adv-x="800" d="M70 647q0 141 48 262.5t146.5 206.5t231.5 103l45 251h118l-55 -249q81 -5 132.5 -38.5t51.5 -101.5q0 -33 -10 -67h-116q10 38 10 57q0 70 -76 70h-10l-156 -703q10 -2 31 -2q40 0 76 10.5t72.5 34t59 41.5t62.5 53q-45 -267 -332 -278l-77 -352h-56l64 354 q-112 16 -186 107t-74 241zM285 653q0 -55 18.5 -105t56.5 -79l113 625q-82 -64 -135 -190t-53 -251z" />
<glyph unicode="&#xa3;" horiz-adv-x="999" d="M51 686q67 136 215 182l148 605l307 63l-164 -678q8 -2 32.5 -10.5t35.5 -11.5t31.5 -8t38 -7t36.5 -2q85 0 129 47l12 -2q-18 -75 -117 -140t-212 -65h-33l-115 -473q32 4 101.5 6.5t111.5 7.5t115.5 36t150.5 88q-15 -148 -72 -236t-140 -88h-605l176 733q-5 0 -16.5 1 t-17.5 1q-80 0 -136 -53z" />
<glyph unicode="&#xa4;" horiz-adv-x="980" d="M121 1008l78 73l114 -114q83 61 187 61q101 0 182 -59l115 114l73 -73l-112 -113q61 -83 61 -188q0 -104 -61 -187l112 -112l-73 -74l-113 113q-83 -60 -184 -60q-105 0 -189 62l-114 -115l-74 74l115 114q-60 83 -60 183q0 101 60 184zM295 709q0 -85 60 -145t145 -60 t145 60t60 145t-60 144.5t-145 59.5t-145 -59.5t-60 -144.5z" />
<glyph unicode="&#xa5;" horiz-adv-x="1142" d="M172 291l29 102h196l29 133h-203l29 103h197l-230 907h336l180 -739l307 739h136l-402 -907h268l-28 -103h-262l-29 -133h268l-28 -102h-263l-61 -291h-328l62 291h-203z" />
<glyph unicode="&#xa6;" horiz-adv-x="651" d="M199 455h190v-967h-190v967zM199 616v922h190v-922h-190z" />
<glyph unicode="&#xa7;" horiz-adv-x="1067" d="M-23 158q0 111 56.5 181.5t140.5 70.5q38 0 72 -18.5t49.5 -35.5t40.5 -49q-91 -7 -128.5 -42.5t-37.5 -112.5q0 -160 158 -160q86 0 130 46.5t44 149.5q0 69 -20.5 127t-53 99t-71.5 78t-78.5 71.5t-72 69.5t-53 81.5t-20.5 100.5q0 95 59 170t154 111q-10 45 -10 86 q0 88 38.5 157.5t101.5 111.5t138.5 63.5t155.5 21.5q29 0 57.5 -2.5t68.5 -14.5t69 -31.5t50 -57.5t21 -89q0 -72 -36.5 -118.5t-98.5 -46.5q-46 0 -76 32q33 20 53.5 60.5t20.5 81.5q0 46 -29 78t-86 32q-82 0 -137 -65.5t-55 -153.5q0 -51 22.5 -96t58 -79.5t78.5 -68 t86.5 -71t79 -79t58 -99.5t22.5 -127q0 -79 -27 -150.5t-82 -124t-128 -67.5q0 -181 -118.5 -285.5t-326.5 -104.5q-43 0 -82 4.5t-88.5 21.5t-84.5 44.5t-59 78.5t-24 120zM350 924q0 -47 34.5 -94t87 -92t107.5 -94.5t103 -119.5t66 -149q38 47 38 129q0 67 -29 123.5 t-76.5 100.5t-98.5 82t-106 87t-87 98q-39 -20 -39 -71z" />
<glyph unicode="&#xa8;" horiz-adv-x="802" d="M115 1298q0 51 36.5 88t88.5 37q51 0 88 -37t37 -88q0 -52 -37 -88t-88 -36q-53 0 -89 36t-36 88zM483 1298q0 51 36.5 88t88.5 37q51 0 88 -37t37 -88q0 -52 -37 -88t-88 -36q-53 0 -89 36t-36 88z" />
<glyph unicode="&#xa9;" horiz-adv-x="1155" d="M86 678q0 144 67.5 265t181.5 190t247 69q100 0 191 -40.5t158 -110t106.5 -166.5t39.5 -205t-39.5 -205.5t-106.5 -167t-158 -110.5t-191 -41q-133 0 -247 69t-181.5 189.5t-67.5 263.5zM180 678q0 -183 119.5 -309.5t286.5 -126.5q166 0 284.5 126.5t118.5 309.5 t-118.5 309.5t-284.5 126.5q-167 0 -286.5 -126.5t-119.5 -309.5zM293 688q0 132 93 217.5t212 85.5q84 0 153.5 -49.5t98.5 -144.5l-96 -37q-10 59 -56.5 91t-105.5 32q-75 0 -130.5 -49t-55.5 -136q0 -92 56 -155.5t138 -63.5q48 0 89.5 24.5t64.5 67.5l90 -59 q-43 -65 -110 -102t-142 -37q-124 0 -211.5 93.5t-87.5 221.5z" />
<glyph unicode="&#xaa;" horiz-adv-x="729" d="M195 1141q0 62 18.5 128t53 124t91.5 95.5t127 37.5q68 0 105 -37l6 27h170l-86 -377q-6 -27 -6 -39q0 -39 43 -39q21 0 31 4q-35 -102 -115 -102q-59 0 -84 26.5t-33 83.5q-74 -117 -182 -117q-72 0 -105.5 51.5t-33.5 133.5zM354 1157q0 -58 18.5 -83t41.5 -25 q26 0 52.5 29t45.5 71l66 285q-27 22 -60 22q-65 0 -114.5 -99t-49.5 -200z" />
<glyph unicode="&#xab;" horiz-adv-x="1056" d="M16 520l443 400l86 -93l-359 -309l281 -287l-82 -90zM442 520l443 400l86 -93l-359 -309l281 -287l-82 -90z" />
<glyph unicode="&#xac;" horiz-adv-x="956" d="M41 455l37 161h741l-104 -512h-232l72 351h-514z" />
<glyph unicode="&#xad;" horiz-adv-x="657" d="M80 455l37 161h409l-34 -161h-412z" />
<glyph unicode="&#xae;" horiz-adv-x="1155" d="M88 684q0 144 67.5 265t181.5 190t247 69q100 0 191 -40.5t158 -110t106.5 -166.5t39.5 -205t-39.5 -205.5t-106.5 -167t-158 -110.5t-191 -41q-133 0 -247 69t-181.5 189.5t-67.5 263.5zM182 684q0 -183 119.5 -309.5t286.5 -126.5q166 0 284.5 126.5t118.5 309.5 t-118.5 309.5t-284.5 126.5q-167 0 -286.5 -126.5t-119.5 -309.5zM387 393l2 596h199q108 0 166.5 -44.5t58.5 -127.5q0 -57 -33.5 -100t-87.5 -58l133 -256l-96 -14l-127 256h-121v-252h-94zM481 723h92q36 0 65.5 6t55 27.5t25.5 56.5q0 92 -125 92h-113v-182z" />
<glyph unicode="&#xb0;" horiz-adv-x="655" d="M172 999q0 187 91 313t241 126q87 0 127.5 -58.5t40.5 -173.5q0 -68 -20.5 -142.5t-57 -142t-96 -111.5t-129.5 -44q-113 0 -155 57t-42 176zM319 975q0 -133 56 -133q53 0 93 56t60.5 145t20.5 194q0 62 -10.5 95.5t-40.5 33.5q-50 0 -106.5 -83.5t-67.5 -219.5 q-5 -62 -5 -88z" />
<glyph unicode="&#xb1;" horiz-adv-x="980" d="M4 139l37 162h752l-35 -162h-754zM111 633l49 229h262l55 250h232l-56 -250h260l-47 -229h-262l-55 -252h-232l56 252h-262z" />
<glyph unicode="&#xb2;" horiz-adv-x="714" d="M141 739q0 66 40.5 130t97.5 118t114.5 110.5t98 131t40.5 155.5q0 38 -22 64.5t-49 26.5q-56 0 -76 -22t-20 -67q0 -24 11 -47t34 -28q-45 -39 -93 -39q-37 0 -60.5 26t-23.5 74q0 65 61 113.5t185 48.5q226 0 226 -176q0 -70 -34 -132.5t-88 -111t-110 -90t-111 -87.5 t-81 -85h8q37 0 113.5 -10.5t117.5 -10.5q16 0 29.5 1.5t26 6t20 7.5t20 12.5t17.5 13.5t20 18t21 19q0 -37 -0.5 -57t-3.5 -47t-8.5 -40.5t-15.5 -29.5t-25 -23.5t-37 -12.5t-52 -5q-66 0 -149 20.5t-143 20.5q-13 0 -30.5 -6t-37.5 -15.5t-27 -11.5q-4 24 -4 37z" />
<glyph unicode="&#xb3;" horiz-adv-x="716" d="M137 879q0 79 37 123.5t105 44.5q82 0 96 -56q-34 -3 -56.5 -15.5t-32.5 -33t-13 -39t-3 -43.5q0 -52 27 -71t78 -19q62 0 103.5 58.5t41.5 134.5q0 68 -38 124.5t-115 81.5q95 23 148.5 88.5t53.5 131.5q0 38 -19.5 62t-55.5 24q-107 0 -107 -89q0 -24 11 -47t34 -28 q-45 -39 -92 -39q-37 0 -60.5 26t-23.5 74q0 64 66 113t190 49q98 0 153.5 -47t55.5 -115q0 -58 -41 -113t-121 -92q75 -22 111.5 -69.5t36.5 -110.5q0 -105 -90 -196t-216 -91q-44 0 -83 6t-83.5 23t-71 55.5t-26.5 94.5z" />
<glyph unicode="&#xb4;" horiz-adv-x="647" d="M246 1149l186 387h215l-248 -387h-153z" />
<glyph unicode="&#xb5;" horiz-adv-x="1034" d="M-115 -340l289 1364h295l-147 -696q-7 -28 -7 -52q0 -39 15 -64.5t47 -25.5q109 0 164 181l139 657h295l-148 -696q-8 -36 -8 -66q0 -42 20 -59t64 -17q57 0 99 49.5t67 131.5h86q-33 -96 -77.5 -166t-85.5 -107.5t-90 -60t-84 -28t-75 -5.5q-86 0 -138.5 47t-61.5 137 q-113 -180 -293 -184l-55 -266z" />
<glyph unicode="&#xb6;" horiz-adv-x="1062" d="M133 1006q0 77 20.5 152.5t63 143.5t102 119.5t144 82t182.5 30.5q80 0 146 -18.5t119.5 -57t83.5 -105.5t30 -157q0 -62 -16 -147l-260 -1215h-193l166 778q-33 -11 -88 -22l-158 -756h-192l157 756q-100 20 -171 83t-103.5 148.5t-32.5 184.5zM655 694h13q40 0 71 8 l99 465q12 59 12 101q0 85 -47 129z" />
<glyph unicode="&#xb7;" horiz-adv-x="575" d="M68 547q0 82 57 140t139 58t140.5 -58t58.5 -140t-58.5 -139.5t-140.5 -57.5t-139 57.5t-57 139.5z" />
<glyph unicode="&#xb8;" horiz-adv-x="464" d="M0 -389q35 65 82 65q45 0 85.5 -27.5t65.5 -27.5q26 0 44 26.5t18 59.5q0 31 -20 52.5t-60 21.5q-48 0 -106 -25l108 303l72 -47l-60 -147q66 16 109 16q63 0 95 -27t32 -75q0 -104 -74.5 -164.5t-171.5 -60.5q-70 0 -117.5 14t-101.5 43z" />
<glyph unicode="&#xb9;" horiz-adv-x="464" d="M166 707l158 690h-113l14 51q147 0 301 86l-188 -827h-172z" />
<glyph unicode="&#xba;" horiz-adv-x="632" d="M199 1137q0 98 25.5 174t69.5 122t99 69.5t117 23.5q45 0 79 -14t34 -35q0 -37 -54 -54q-16 39 -53 39q-41 0 -74 -36t-50.5 -89t-26.5 -103t-9 -87q0 -47 22 -65.5t62 -18.5q50 0 80 65.5t41 155.5q-31 8 -31 45q0 30 25.5 57t54.5 27q22 0 30.5 -8t8.5 -31 q14 8 23.5 16.5t23.5 25.5t21 24l12 -23q-27 -86 -80 -117q-4 -82 -30.5 -150t-65 -109.5t-82 -64t-86.5 -22.5q-96 0 -141 43t-45 140z" />
<glyph unicode="&#xbb;" horiz-adv-x="1062" d="M35 233l358 310l-280 286l82 91l368 -379l-442 -400zM461 233l358 310l-280 286l82 91l368 -379l-442 -400z" />
<glyph unicode="&#xbc;" horiz-adv-x="1384" d="M100 461l158 690h-113l15 51q147 0 301 86l-189 -827h-172zM242 -338l540 1874h148l-541 -1874h-147zM723 307q14 41 60 129t79 172t33 156q0 36 -8 67q56 0 94.5 -27t38.5 -77q0 -49 -20 -99t-44 -84t-58.5 -81t-51.5 -76h184l96 422l177 22l-103 -444h78l-25 -80h-71 l-70 -305h-170l70 305h-289z" />
<glyph unicode="&#xbd;" horiz-adv-x="1400" d="M100 461l158 690h-113l15 51q147 0 301 86l-189 -827h-172zM231 -338l541 1874h148l-541 -1874h-148zM707 43q0 66 40.5 130t97.5 118t114.5 110.5t98 131t40.5 155.5q0 38 -22 64t-50 26q-56 0 -76 -21.5t-20 -66.5q0 -24 11.5 -47.5t33.5 -28.5q-45 -39 -92 -39 q-37 0 -60.5 26.5t-23.5 74.5q0 66 60.5 114t184.5 48q226 0 226 -176q0 -70 -34 -132.5t-88 -111t-110 -90t-111 -87.5t-81 -85h8q38 0 114 -10.5t117 -10.5q16 0 29.5 1.5t26 6t20 7.5t20 12.5t17.5 13.5t20 18t21 19q0 -52 -1.5 -77.5t-8.5 -57.5t-21.5 -46t-41.5 -24 t-68 -10q-66 0 -150 20.5t-143 20.5q-13 0 -30.5 -6t-37 -15.5t-26.5 -11.5q-4 24 -4 37z" />
<glyph unicode="&#xbe;" horiz-adv-x="1593" d="M51 633q0 79 37 123.5t105 44.5q82 0 96 -56q-34 -3 -56.5 -15.5t-32.5 -33t-13 -39t-3 -43.5q0 -52 27 -71t78 -19q62 0 103.5 58.5t41.5 134.5q0 69 -38 125.5t-115 81.5q96 23 149 88t53 131q0 38 -19.5 62t-55.5 24q-107 0 -107 -88q0 -24 11.5 -47.5t33.5 -28.5 q-45 -39 -92 -39q-37 0 -60.5 26t-23.5 74q0 64 66 113t190 49q98 0 153.5 -47t55.5 -115q0 -58 -41 -112.5t-121 -91.5q75 -22 111.5 -70t36.5 -111q0 -67 -39 -132.5t-111 -109.5t-156 -44q-264 0 -264 178zM449 -338l540 1874h148l-541 -1874h-147zM936 307q14 41 60 129 t79 172t33 156q0 36 -8 67q56 0 94.5 -27t38.5 -77q0 -49 -20 -99t-44 -84t-58.5 -81t-51.5 -76h184l96 422l177 22l-103 -444h78l-25 -80h-71l-70 -305h-170l70 305h-289z" />
<glyph unicode="&#xbf;" horiz-adv-x="854" d="M-131 -244q0 82 30 152.5t75.5 118t103.5 98t111 93.5t100.5 105t70.5 130h136q0 -57 -21 -110.5t-55 -97.5t-74.5 -87.5t-81.5 -87t-75 -89t-55 -102t-21 -117.5q0 -84 35 -120.5t85 -36.5q63 0 114.5 48t51.5 120q0 44 -19 85t-58 52q26 42 65.5 64t83.5 22 q65 0 110.5 -45t45.5 -127q0 -44 -14 -88t-47.5 -88t-83 -78t-126 -55t-170.5 -21q-91 0 -154.5 19t-98 55.5t-49.5 82t-15 105.5zM315 764q0 68 47.5 116t114.5 48t115.5 -48t48.5 -116q0 -67 -48 -114.5t-116 -47.5q-67 0 -114.5 47t-47.5 115z" />
<glyph unicode="&#xc0;" horiz-adv-x="1234" d="M-80 686q0 105 119 178.5t295 73.5q46 0 110 -6q80 127 166 233.5t178 191t188 132t185 47.5q87 0 158 -29l-322 -1507h-295l158 743q-137 62 -274 74q-116 -252 -191.5 -513t-75.5 -415q0 -78 29 -122q-31 0 -50.5 0.5t-51.5 5t-53 12.5t-45.5 24t-39 38.5t-24.5 57.5 t-10 79q0 137 83.5 367t217.5 466q-204 -13 -240 -106q8 0 17.5 -21.5t9.5 -42.5q0 -36 -33 -58t-82 -22q-55 0 -91 30.5t-36 88.5zM629 905q145 -28 250 -71l118 557q-170 -91 -368 -486zM797 2048h215l59 -387h-153z" />
<glyph unicode="&#xc1;" horiz-adv-x="1234" d="M-80 686q0 105 119 178.5t295 73.5q46 0 110 -6q80 127 166 233.5t178 191t188 132t185 47.5q87 0 158 -29l-322 -1507h-295l158 743q-137 62 -274 74q-116 -252 -191.5 -513t-75.5 -415q0 -78 29 -122q-31 0 -50.5 0.5t-51.5 5t-53 12.5t-45.5 24t-39 38.5t-24.5 57.5 t-10 79q0 137 83.5 367t217.5 466q-204 -13 -240 -106q8 0 17.5 -21.5t9.5 -42.5q0 -36 -33 -58t-82 -22q-55 0 -91 30.5t-36 88.5zM629 905q145 -28 250 -71l118 557q-170 -91 -368 -486zM897 1661l186 387h215l-247 -387h-154z" />
<glyph unicode="&#xc2;" horiz-adv-x="1234" d="M-80 686q0 105 119 178.5t295 73.5q46 0 110 -6q80 127 166 233.5t178 191t188 132t185 47.5q87 0 158 -29l-322 -1507h-295l158 743q-137 62 -274 74q-116 -252 -191.5 -513t-75.5 -415q0 -78 29 -122q-31 0 -50.5 0.5t-51.5 5t-53 12.5t-45.5 24t-39 38.5t-24.5 57.5 t-10 79q0 137 83.5 367t217.5 466q-204 -13 -240 -106q8 0 17.5 -21.5t9.5 -42.5q0 -36 -33 -58t-82 -22q-55 0 -91 30.5t-36 88.5zM629 905q145 -28 250 -71l118 557q-170 -91 -368 -486zM735 1661l434 387h43l123 -387h-65l-123 164l-322 -164h-90z" />
<glyph unicode="&#xc3;" horiz-adv-x="1234" d="M-80 686q0 105 119 178.5t295 73.5q46 0 110 -6q80 127 166 233.5t178 191t188 132t185 47.5q87 0 158 -29l-322 -1507h-295l158 743q-137 62 -274 74q-116 -252 -191.5 -513t-75.5 -415q0 -78 29 -122q-31 0 -50.5 0.5t-51.5 5t-53 12.5t-45.5 24t-39 38.5t-24.5 57.5 t-10 79q0 137 83.5 367t217.5 466q-204 -13 -240 -106q8 0 17.5 -21.5t9.5 -42.5q0 -36 -33 -58t-82 -22q-55 0 -91 30.5t-36 88.5zM629 905q145 -28 250 -71l118 557q-170 -91 -368 -486zM739 1704q49 98 137 149.5t205 51.5q79 0 180.5 -34t157.5 -34q85 0 129 47l13 -2 q-18 -75 -117.5 -140t-212.5 -65q-70 0 -180 38t-164 38q-79 0 -135 -53z" />
<glyph unicode="&#xc4;" horiz-adv-x="1234" d="M-80 686q0 105 119 178.5t295 73.5q46 0 110 -6q80 127 166 233.5t178 191t188 132t185 47.5q87 0 158 -29l-322 -1507h-295l158 743q-137 62 -274 74q-116 -252 -191.5 -513t-75.5 -415q0 -78 29 -122q-31 0 -50.5 0.5t-51.5 5t-53 12.5t-45.5 24t-39 38.5t-24.5 57.5 t-10 79q0 137 83.5 367t217.5 466q-204 -13 -240 -106q8 0 17.5 -21.5t9.5 -42.5q0 -36 -33 -58t-82 -22q-55 0 -91 30.5t-36 88.5zM629 905q145 -28 250 -71l118 557q-170 -91 -368 -486zM782 1810q0 51 36.5 88t88.5 37q51 0 88 -37t37 -88q0 -52 -37 -88t-88 -36 q-53 0 -89 36t-36 88zM1151 1810q0 51 36.5 88t88.5 37q51 0 88 -37t37 -88q0 -52 -37 -88t-88 -36q-53 0 -89 36t-36 88z" />
<glyph unicode="&#xc5;" horiz-adv-x="1234" d="M-80 686q0 105 119 178.5t295 73.5q46 0 110 -6q80 127 166 233.5t178 191t188 132t185 47.5q87 0 158 -29l-322 -1507h-295l158 743q-137 62 -274 74q-116 -252 -191.5 -513t-75.5 -415q0 -78 29 -122q-31 0 -50.5 0.5t-51.5 5t-53 12.5t-45.5 24t-39 38.5t-24.5 57.5 t-10 79q0 137 83.5 367t217.5 466q-204 -13 -240 -106q8 0 17.5 -21.5t9.5 -42.5q0 -36 -33 -58t-82 -22q-55 0 -91 30.5t-36 88.5zM629 905q145 -28 250 -71l118 557q-170 -91 -368 -486zM895 1786q0 29 10.5 60.5t30 60t54.5 47t79 18.5q72 0 110 -44t38 -113 q0 -74 -44.5 -123.5t-134.5 -49.5q-64 0 -103.5 42t-39.5 102zM977 1790q0 -76 70 -76q46 0 70 25t24 69q0 20 -1.5 32.5t-7.5 29.5t-21 26t-38 9q-49 0 -72.5 -35t-23.5 -80z" />
<glyph unicode="&#xc6;" horiz-adv-x="1724" d="M31 696q0 61 55.5 116t147.5 87.5t196 32.5q54 0 121 -6q80 129 165.5 236.5t177.5 193.5t188 134t184 48q53 0 173 -20.5t195 -20.5q119 0 240 39q-3 -9 -10.5 -34.5t-12 -38.5t-14.5 -36.5t-19.5 -36.5t-26 -30.5t-35 -26.5t-44.5 -15.5t-57 -6.5q-19 0 -38 2t-33 3.5 t-34 7t-30 8t-32 10.5t-28.5 10.5t-30.5 12t-28 11.5l-111 -518h318l-41 -151h-310l-104 -490h459l-43 -217h-756l158 743q-151 65 -277 74q-116 -249 -190 -511.5t-74 -422.5q0 -36 4.5 -59t9.5 -30.5t9.5 -13.5t5.5 -11q-119 7 -164 24q-99 37 -110 168q-1 18 -1 37 q0 131 83.5 359t217.5 460q-100 -7 -159 -30.5t-80 -75.5q8 0 17 -21.5t9 -42.5q0 -35 -31.5 -57.5t-93.5 -22.5q-49 0 -82.5 32t-33.5 97zM735 903q146 -27 254 -69l119 557q-176 -96 -373 -488z" />
<glyph unicode="&#xc7;" horiz-adv-x="1038" d="M92 469q0 83 11 176t36.5 197.5t63.5 202t96.5 188t131 157t171.5 106.5t213 40q148 0 241 -68t93 -211q0 -83 -34.5 -133.5t-108.5 -50.5q-71 0 -117 53q37 19 65.5 75.5t28.5 111.5t-30 91t-87 36q-86 0 -168 -91t-139 -230t-92 -307.5t-35 -322.5q0 -79 10.5 -136 t36.5 -104t75 -71t122 -24q115 0 222 58.5t179 156.5l47 -21q-72 -158 -212.5 -256t-309.5 -119l-43 -108q66 16 109 16q63 0 95 -27t32 -75q0 -104 -74.5 -164.5t-171.5 -60.5q-70 0 -117.5 14t-101.5 43q35 65 82 65q45 0 85.5 -27.5t65.5 -27.5q26 0 44 26.5t18 59.5 q0 31 -20 52.5t-60 21.5q-49 0 -107 -25l76 211q-422 0 -422 502z" />
<glyph unicode="&#xc8;" horiz-adv-x="919" d="M27 324q0 110 44.5 219.5t133 196.5t201.5 114q-125 89 -125 246q0 79 33.5 157.5t91.5 141.5t143 102t180 39q127 0 210 -67.5t83 -188.5q0 -91 -44.5 -152t-107.5 -61q-55 0 -96 55q37 12 63.5 68t26.5 111q0 58 -32.5 86t-79.5 28q-88 0 -148.5 -88.5t-60.5 -200.5 q0 -96 51.5 -171t155.5 -103q-105 -23 -191 -105.5t-131 -185t-45 -198.5q0 -93 48 -150t147 -57q102 0 214 57t164 152l48 -21q-78 -177 -245.5 -281t-355.5 -104q-95 0 -168.5 29t-118 79.5t-67 114.5t-22.5 138zM528 2048h215l60 -387h-154z" />
<glyph unicode="&#xc9;" horiz-adv-x="919" d="M27 324q0 110 44.5 219.5t133 196.5t201.5 114q-125 89 -125 246q0 79 33.5 157.5t91.5 141.5t143 102t180 39q127 0 210 -67.5t83 -188.5q0 -91 -44.5 -152t-107.5 -61q-55 0 -96 55q37 12 63.5 68t26.5 111q0 58 -32.5 86t-79.5 28q-88 0 -148.5 -88.5t-60.5 -200.5 q0 -96 51.5 -171t155.5 -103q-105 -23 -191 -105.5t-131 -185t-45 -198.5q0 -93 48 -150t147 -57q102 0 214 57t164 152l48 -21q-78 -177 -245.5 -281t-355.5 -104q-95 0 -168.5 29t-118 79.5t-67 114.5t-22.5 138zM727 1661l186 387h215l-247 -387h-154z" />
<glyph unicode="&#xca;" horiz-adv-x="919" d="M27 324q0 110 44.5 219.5t133 196.5t201.5 114q-125 89 -125 246q0 79 33.5 157.5t91.5 141.5t143 102t180 39q127 0 210 -67.5t83 -188.5q0 -91 -44.5 -152t-107.5 -61q-55 0 -96 55q37 12 63.5 68t26.5 111q0 58 -32.5 86t-79.5 28q-88 0 -148.5 -88.5t-60.5 -200.5 q0 -96 51.5 -171t155.5 -103q-105 -23 -191 -105.5t-131 -185t-45 -198.5q0 -93 48 -150t147 -57q102 0 214 57t164 152l48 -21q-78 -177 -245.5 -281t-355.5 -104q-95 0 -168.5 29t-118 79.5t-67 114.5t-22.5 138zM426 1661l434 387h43l123 -387h-65l-123 164l-322 -164 h-90z" />
<glyph unicode="&#xcb;" horiz-adv-x="919" d="M27 324q0 110 44.5 219.5t133 196.5t201.5 114q-125 89 -125 246q0 79 33.5 157.5t91.5 141.5t143 102t180 39q127 0 210 -67.5t83 -188.5q0 -91 -44.5 -152t-107.5 -61q-55 0 -96 55q37 12 63.5 68t26.5 111q0 58 -32.5 86t-79.5 28q-88 0 -148.5 -88.5t-60.5 -200.5 q0 -96 51.5 -171t155.5 -103q-105 -23 -191 -105.5t-131 -185t-45 -198.5q0 -93 48 -150t147 -57q102 0 214 57t164 152l48 -21q-78 -177 -245.5 -281t-355.5 -104q-95 0 -168.5 29t-118 79.5t-67 114.5t-22.5 138zM500 1810q0 51 36.5 88t88.5 37q51 0 88 -37t37 -88 q0 -52 -37 -88t-88 -36q-53 0 -89 36t-36 88zM868 1810q0 51 36.5 88t88.5 37q51 0 88 -37t37 -88q0 -52 -37 -88t-88 -36q-53 0 -89 36t-36 88z" />
<glyph unicode="&#xcc;" horiz-adv-x="827" d="M115 993q0 140 108 267t273.5 201.5t334.5 74.5q30 0 84 -4l-325 -1532h-295l297 1391q-136 -57 -211.5 -171t-75.5 -274q0 -34 4 -61t8 -39t10 -25t7 -16q-219 0 -219 188zM453 2048h215l59 -387h-154z" />
<glyph unicode="&#xcd;" horiz-adv-x="827" d="M115 993q0 140 108 267t273.5 201.5t334.5 74.5q30 0 84 -4l-325 -1532h-295l297 1391q-136 -57 -211.5 -171t-75.5 -274q0 -34 4 -61t8 -39t10 -25t7 -16q-219 0 -219 188zM653 1661l187 387h215l-248 -387h-154z" />
<glyph unicode="&#xce;" horiz-adv-x="827" d="M115 993q0 140 108 267t273.5 201.5t334.5 74.5q30 0 84 -4l-325 -1532h-295l297 1391q-136 -57 -211.5 -171t-75.5 -274q0 -34 4 -61t8 -39t10 -25t7 -16q-219 0 -219 188zM412 1661l434 387h43l123 -387h-66l-123 164l-321 -164h-90z" />
<glyph unicode="&#xcf;" horiz-adv-x="827" d="M115 993q0 140 108 267t273.5 201.5t334.5 74.5q30 0 84 -4l-325 -1532h-295l297 1391q-136 -57 -211.5 -171t-75.5 -274q0 -34 4 -61t8 -39t10 -25t7 -16q-219 0 -219 188zM444 1810q0 51 36.5 88t88.5 37q51 0 88 -37t37 -88q0 -52 -37 -88t-88 -36q-53 0 -89 36 t-36 88zM813 1810q0 51 36.5 88t88.5 37q51 0 88 -37t37 -88q0 -52 -37 -88t-88 -36q-53 0 -89 36t-36 88z" />
<glyph unicode="&#xd0;" horiz-adv-x="1447" d="M117 1004q0 132 108 256.5t275 200t336 75.5q138 0 242.5 -30.5t169.5 -80.5t105.5 -123t56 -150t15.5 -169q0 -260 -78 -493.5t-209.5 -375t-279.5 -141.5q-124 0 -250 109l-16 -82h-295l152 707h-80l41 151h71l94 445l304 40l-105 -485h162l-41 -151h-154l-108 -512 q55 -41 117 -41q88 0 164 83t125 213t76.5 285t27.5 305q0 82 -6.5 141t-25 110.5t-50 83t-81.5 49.5t-120 18q-251 0 -402 -133.5t-151 -364.5q0 -46 6.5 -76t14.5 -44.5t8 -18.5q-110 0 -164.5 46t-54.5 153z" />
<glyph unicode="&#xd1;" horiz-adv-x="1480" d="M125 1004q0 95 43 188t120 170.5t198.5 125.5t265.5 48q82 0 143 -29l240 -1087l243 1112h199l-348 -1532h-283l-237 1016l-234 -1016h-194l315 1395q-135 -54 -208 -166t-73 -279q0 -29 2 -52t6 -38t7 -24t8 -18.5t6 -12.5q-110 0 -164.5 46t-54.5 153zM743 1704 q49 98 137 149.5t205 51.5q79 0 180.5 -34t157.5 -34q85 0 129 47l13 -2q-18 -75 -117.5 -140t-212.5 -65q-70 0 -180 38t-164 38q-79 0 -135 -53z" />
<glyph unicode="&#xd2;" horiz-adv-x="1427" d="M111 977q0 105 69.5 208t181.5 179.5t261.5 124t302.5 47.5q495 0 495 -518q0 -88 -13.5 -183.5t-43 -196t-72 -194t-104.5 -177t-136.5 -145.5t-172 -98t-207.5 -36q-373 0 -373 411q0 103 21.5 227t68 254.5t110 237t157 174.5t200.5 68q53 0 105 -17 q-89 -54 -174 -223.5t-135 -370.5t-50 -358q0 -109 29 -165t94 -56q74 0 151.5 84.5t137 216t97.5 301.5t38 332q0 183 -59.5 260.5t-212.5 77.5q-111 0 -215 -37t-185.5 -103t-130.5 -166t-49 -218q0 -77 20 -113q-101 0 -153.5 40.5t-52.5 131.5zM676 2048h215l59 -387 h-153z" />
<glyph unicode="&#xd3;" horiz-adv-x="1427" d="M111 977q0 105 69.5 208t181.5 179.5t261.5 124t302.5 47.5q495 0 495 -518q0 -88 -13.5 -183.5t-43 -196t-72 -194t-104.5 -177t-136.5 -145.5t-172 -98t-207.5 -36q-373 0 -373 411q0 103 21.5 227t68 254.5t110 237t157 174.5t200.5 68q53 0 105 -17 q-89 -54 -174 -223.5t-135 -370.5t-50 -358q0 -109 29 -165t94 -56q74 0 151.5 84.5t137 216t97.5 301.5t38 332q0 183 -59.5 260.5t-212.5 77.5q-111 0 -215 -37t-185.5 -103t-130.5 -166t-49 -218q0 -77 20 -113q-101 0 -153.5 40.5t-52.5 131.5zM891 1661l186 387h215 l-248 -387h-153z" />
<glyph unicode="&#xd4;" horiz-adv-x="1427" d="M111 977q0 105 69.5 208t181.5 179.5t261.5 124t302.5 47.5q495 0 495 -518q0 -88 -13.5 -183.5t-43 -196t-72 -194t-104.5 -177t-136.5 -145.5t-172 -98t-207.5 -36q-373 0 -373 411q0 103 21.5 227t68 254.5t110 237t157 174.5t200.5 68q53 0 105 -17 q-89 -54 -174 -223.5t-135 -370.5t-50 -358q0 -109 29 -165t94 -56q74 0 151.5 84.5t137 216t97.5 301.5t38 332q0 183 -59.5 260.5t-212.5 77.5q-111 0 -215 -37t-185.5 -103t-130.5 -166t-49 -218q0 -77 20 -113q-101 0 -153.5 40.5t-52.5 131.5zM635 1661l434 387h43 l123 -387h-66l-122 164l-322 -164h-90z" />
<glyph unicode="&#xd5;" horiz-adv-x="1427" d="M111 977q0 105 69.5 208t181.5 179.5t261.5 124t302.5 47.5q495 0 495 -518q0 -88 -13.5 -183.5t-43 -196t-72 -194t-104.5 -177t-136.5 -145.5t-172 -98t-207.5 -36q-373 0 -373 411q0 103 21.5 227t68 254.5t110 237t157 174.5t200.5 68q53 0 105 -17 q-89 -54 -174 -223.5t-135 -370.5t-50 -358q0 -109 29 -165t94 -56q74 0 151.5 84.5t137 216t97.5 301.5t38 332q0 183 -59.5 260.5t-212.5 77.5q-111 0 -215 -37t-185.5 -103t-130.5 -166t-49 -218q0 -77 20 -113q-101 0 -153.5 40.5t-52.5 131.5zM639 1704 q49 98 137 149.5t205 51.5q79 0 180.5 -34t157.5 -34q85 0 129 47l12 -2q-18 -75 -117.5 -140t-212.5 -65q-70 0 -180 38t-164 38q-79 0 -135 -53z" />
<glyph unicode="&#xd6;" horiz-adv-x="1427" d="M111 977q0 105 69.5 208t181.5 179.5t261.5 124t302.5 47.5q495 0 495 -518q0 -88 -13.5 -183.5t-43 -196t-72 -194t-104.5 -177t-136.5 -145.5t-172 -98t-207.5 -36q-373 0 -373 411q0 103 21.5 227t68 254.5t110 237t157 174.5t200.5 68q53 0 105 -17 q-89 -54 -174 -223.5t-135 -370.5t-50 -358q0 -109 29 -165t94 -56q74 0 151.5 84.5t137 216t97.5 301.5t38 332q0 183 -59.5 260.5t-212.5 77.5q-111 0 -215 -37t-185.5 -103t-130.5 -166t-49 -218q0 -77 20 -113q-101 0 -153.5 40.5t-52.5 131.5zM668 1810q0 51 36.5 88 t88.5 37q51 0 88 -37t37 -88q0 -52 -37 -88t-88 -36q-53 0 -89 36t-36 88zM1036 1810q0 51 36.5 88t88.5 37q51 0 88 -37t37 -88q0 -52 -37 -88t-88 -36q-53 0 -89 36t-36 88z" />
<glyph unicode="&#xd7;" horiz-adv-x="847" d="M72 338l194 194l-194 195l133 131l192 -194l197 196l131 -133l-195 -195l195 -194l-131 -133l-197 194l-192 -192z" />
<glyph unicode="&#xd8;" horiz-adv-x="1351" d="M94 913q0 133 111.5 254.5t297 196t388.5 74.5q33 0 49 -2l23 100h106l-25 -115q314 -73 314 -475q0 -106 -21.5 -221.5t-70.5 -236.5t-118.5 -220.5t-174.5 -173.5t-230 -96l-30 -143h-107l29 133q-169 0 -264 92.5t-95 294.5q0 79 15.5 174t44.5 196t75.5 195.5 t103.5 169t134 119.5t162 45q49 0 92 -14l19 83q-40 7 -78 7q-153 0 -282 -59t-208.5 -173t-79.5 -262q0 -32 5 -54.5t10.5 -33t5.5 -14.5q-98 0 -149.5 37.5t-51.5 121.5zM569 367q0 -207 99 -224l233 1106q-83 -56 -161.5 -213t-124.5 -341t-46 -328zM782 180 q81 59 153.5 194.5t116.5 308.5t44 331q0 108 -17 177t-61 107z" />
<glyph unicode="&#xd9;" horiz-adv-x="1576" d="M113 993q0 85 42 167t116.5 149t171 118.5t212 80t232.5 28.5q44 0 98 -10q-32 -121 -74 -275t-64.5 -235.5t-49.5 -184t-40 -158.5t-26 -119.5t-17.5 -106t-4.5 -80.5q0 -36 0.5 -55t3.5 -44t9.5 -36.5t17.5 -25.5t29 -20t42.5 -10t58.5 -4q44 0 73 7t62 32.5t58 73 t55 128.5t60.5 199.5t66.5 286.5l137 633h289l-135 -639q-23 -111 -43.5 -195.5t-45.5 -169.5t-51 -147.5t-58.5 -122t-69.5 -100t-82.5 -75.5t-100 -55t-119 -31t-141.5 -11q-215 0 -305 82t-90 249q0 56 7 119t29.5 166.5t33 150.5t50 202t48.5 192l68 270 q-170 -45 -266.5 -167t-96.5 -304q0 -28 2 -50.5t6 -38t7 -23.5t8 -18t6 -11q-219 0 -219 188zM952 2048h215l60 -387h-154z" />
<glyph unicode="&#xda;" horiz-adv-x="1576" d="M113 993q0 85 42 167t116.5 149t171 118.5t212 80t232.5 28.5q44 0 98 -10q-32 -121 -74 -275t-64.5 -235.5t-49.5 -184t-40 -158.5t-26 -119.5t-17.5 -106t-4.5 -80.5q0 -36 0.5 -55t3.5 -44t9.5 -36.5t17.5 -25.5t29 -20t42.5 -10t58.5 -4q44 0 73 7t62 32.5t58 73 t55 128.5t60.5 199.5t66.5 286.5l137 633h289l-135 -639q-23 -111 -43.5 -195.5t-45.5 -169.5t-51 -147.5t-58.5 -122t-69.5 -100t-82.5 -75.5t-100 -55t-119 -31t-141.5 -11q-215 0 -305 82t-90 249q0 56 7 119t29.5 166.5t33 150.5t50 202t48.5 192l68 270 q-170 -45 -266.5 -167t-96.5 -304q0 -28 2 -50.5t6 -38t7 -23.5t8 -18t6 -11q-219 0 -219 188zM1036 1661l187 387h215l-248 -387h-154z" />
<glyph unicode="&#xdb;" horiz-adv-x="1576" d="M113 993q0 85 42 167t116.5 149t171 118.5t212 80t232.5 28.5q44 0 98 -10q-32 -121 -74 -275t-64.5 -235.5t-49.5 -184t-40 -158.5t-26 -119.5t-17.5 -106t-4.5 -80.5q0 -36 0.5 -55t3.5 -44t9.5 -36.5t17.5 -25.5t29 -20t42.5 -10t58.5 -4q44 0 73 7t62 32.5t58 73 t55 128.5t60.5 199.5t66.5 286.5l137 633h289l-135 -639q-23 -111 -43.5 -195.5t-45.5 -169.5t-51 -147.5t-58.5 -122t-69.5 -100t-82.5 -75.5t-100 -55t-119 -31t-141.5 -11q-215 0 -305 82t-90 249q0 56 7 119t29.5 166.5t33 150.5t50 202t48.5 192l68 270 q-170 -45 -266.5 -167t-96.5 -304q0 -28 2 -50.5t6 -38t7 -23.5t8 -18t6 -11q-219 0 -219 188zM856 1661l434 387h43l123 -387h-65l-123 164l-322 -164h-90z" />
<glyph unicode="&#xdc;" horiz-adv-x="1576" d="M113 993q0 85 42 167t116.5 149t171 118.5t212 80t232.5 28.5q44 0 98 -10q-32 -121 -74 -275t-64.5 -235.5t-49.5 -184t-40 -158.5t-26 -119.5t-17.5 -106t-4.5 -80.5q0 -36 0.5 -55t3.5 -44t9.5 -36.5t17.5 -25.5t29 -20t42.5 -10t58.5 -4q44 0 73 7t62 32.5t58 73 t55 128.5t60.5 199.5t66.5 286.5l137 633h289l-135 -639q-23 -111 -43.5 -195.5t-45.5 -169.5t-51 -147.5t-58.5 -122t-69.5 -100t-82.5 -75.5t-100 -55t-119 -31t-141.5 -11q-215 0 -305 82t-90 249q0 56 7 119t29.5 166.5t33 150.5t50 202t48.5 192l68 270 q-170 -45 -266.5 -167t-96.5 -304q0 -28 2 -50.5t6 -38t7 -23.5t8 -18t6 -11q-219 0 -219 188zM877 1810q0 51 36 88t88 37q51 0 88 -37t37 -88q0 -52 -37 -88t-88 -36q-53 0 -88.5 36t-35.5 88zM1245 1810q0 51 36.5 88t88.5 37q51 0 88 -37t37 -88q0 -52 -37 -88t-88 -36 q-53 0 -89 36t-36 88z" />
<glyph unicode="&#xdd;" horiz-adv-x="1353" d="M113 993q0 140 108 267t273.5 201.5t334.5 74.5q30 0 84 -4l179 -733l303 727h135l-397 -895l-136 -631h-327l135 631l-197 768q-144 -53 -224.5 -170.5t-80.5 -282.5q0 -35 4 -62t8 -39t10 -24.5t7 -15.5q-219 0 -219 188zM1028 1661l186 387h216l-248 -387h-154z" />
<glyph unicode="&#xde;" horiz-adv-x="1234" d="M70 778q0 146 129.5 281t318.5 203l51 233l303 41l-49 -225q113 -5 201 -40t141 -91.5t80 -125.5t27 -147q0 -99 -41.5 -196t-115.5 -176t-188 -128t-247 -49h-59l-76 -358h-295l246 1151q-115 -60 -175.5 -170.5t-60.5 -261.5q0 -46 6.5 -76t14.5 -44.5t8 -18.5 q-110 0 -164.5 45.5t-54.5 152.5zM637 434h29q78 0 150 47t121 120.5t78 163t29 173.5q0 77 -23.5 137t-78.5 99.5t-137 42.5z" />
<glyph unicode="&#xdf;" horiz-adv-x="921" d="M-139 -512l340 1597q73 349 372 349q135 0 208 -75.5t73 -184.5q0 -92 -49.5 -175.5t-138.5 -124.5q103 -35 150.5 -112.5t47.5 -177.5q0 -120 -26.5 -220.5t-68 -166t-94 -111.5t-103.5 -66t-97 -20q-21 0 -67 4l26 121q60 0 106 51t70 131.5t35.5 161.5t11.5 158 q0 71 -33.5 114t-113.5 64l37 119q73 30 121.5 87t48.5 140q0 58 -18.5 80t-59.5 22q-43 0 -83 -38t-60 -130l-326 -1523z" />
<glyph unicode="&#xe0;" d="M8 317q0 71 14.5 149.5t42.5 159t73.5 153.5t101.5 130t132.5 91t162.5 34q151 0 167 -106l21 96h297l-150 -696q-8 -36 -8 -66q0 -42 20 -59t64 -17q57 0 99 49.5t67 131.5h86q-33 -96 -77.5 -166t-85.5 -107.5t-90 -60t-84 -28t-75 -5.5q-84 0 -136 45.5t-64 132.5 q-123 -190 -305 -190q-43 0 -82 10.5t-74 35t-61 62t-41 94t-15 127.5zM311 346q0 -56 10 -91.5t28.5 -48.5t31.5 -16.5t33 -3.5q49 0 101 49t69 132l98 462q-2 27 -22 52.5t-62 25.5q-62 0 -118 -60t-91.5 -148.5t-56.5 -183t-21 -169.5zM477 1536h215l60 -387h-154z" />
<glyph unicode="&#xe1;" d="M8 317q0 71 14.5 149.5t42.5 159t73.5 153.5t101.5 130t132.5 91t162.5 34q151 0 167 -106l21 96h297l-150 -696q-8 -36 -8 -66q0 -42 20 -59t64 -17q57 0 99 49.5t67 131.5h86q-33 -96 -77.5 -166t-85.5 -107.5t-90 -60t-84 -28t-75 -5.5q-84 0 -136 45.5t-64 132.5 q-123 -190 -305 -190q-43 0 -82 10.5t-74 35t-61 62t-41 94t-15 127.5zM311 346q0 -56 10 -91.5t28.5 -48.5t31.5 -16.5t33 -3.5q49 0 101 49t69 132l98 462q-2 27 -22 52.5t-62 25.5q-62 0 -118 -60t-91.5 -148.5t-56.5 -183t-21 -169.5zM537 1149l186 387h215l-248 -387 h-153z" />
<glyph unicode="&#xe2;" d="M8 317q0 71 14.5 149.5t42.5 159t73.5 153.5t101.5 130t132.5 91t162.5 34q151 0 167 -106l21 96h297l-150 -696q-8 -36 -8 -66q0 -42 20 -59t64 -17q57 0 99 49.5t67 131.5h86q-33 -96 -77.5 -166t-85.5 -107.5t-90 -60t-84 -28t-75 -5.5q-84 0 -136 45.5t-64 132.5 q-123 -190 -305 -190q-43 0 -82 10.5t-74 35t-61 62t-41 94t-15 127.5zM311 346q0 -56 10 -91.5t28.5 -48.5t31.5 -16.5t33 -3.5q49 0 101 49t69 132l98 462q-2 27 -22 52.5t-62 25.5q-62 0 -118 -60t-91.5 -148.5t-56.5 -183t-21 -169.5zM334 1149l434 387h43l123 -387h-66 l-123 164l-321 -164h-90z" />
<glyph unicode="&#xe3;" d="M8 317q0 71 14.5 149.5t42.5 159t73.5 153.5t101.5 130t132.5 91t162.5 34q151 0 167 -106l21 96h297l-150 -696q-8 -36 -8 -66q0 -42 20 -59t64 -17q57 0 99 49.5t67 131.5h86q-33 -96 -77.5 -166t-85.5 -107.5t-90 -60t-84 -28t-75 -5.5q-84 0 -136 45.5t-64 132.5 q-123 -190 -305 -190q-43 0 -82 10.5t-74 35t-61 62t-41 94t-15 127.5zM244 1192q49 98 137 149.5t205 51.5q79 0 180.5 -34t157.5 -34q85 0 129 47l12 -2q-18 -75 -117.5 -140t-212.5 -65q-70 0 -180 38t-164 38q-79 0 -135 -53zM311 346q0 -56 10 -91.5t28.5 -48.5 t31.5 -16.5t33 -3.5q49 0 101 49t69 132l98 462q-2 27 -22 52.5t-62 25.5q-62 0 -118 -60t-91.5 -148.5t-56.5 -183t-21 -169.5z" />
<glyph unicode="&#xe4;" d="M8 317q0 71 14.5 149.5t42.5 159t73.5 153.5t101.5 130t132.5 91t162.5 34q151 0 167 -106l21 96h297l-150 -696q-8 -36 -8 -66q0 -42 20 -59t64 -17q57 0 99 49.5t67 131.5h86q-33 -96 -77.5 -166t-85.5 -107.5t-90 -60t-84 -28t-75 -5.5q-84 0 -136 45.5t-64 132.5 q-123 -190 -305 -190q-43 0 -82 10.5t-74 35t-61 62t-41 94t-15 127.5zM311 346q0 -56 10 -91.5t28.5 -48.5t31.5 -16.5t33 -3.5q49 0 101 49t69 132l98 462q-2 27 -22 52.5t-62 25.5q-62 0 -118 -60t-91.5 -148.5t-56.5 -183t-21 -169.5zM403 1298q0 51 36.5 88t88.5 37 q51 0 88 -37t37 -88q0 -52 -37 -88t-88 -36q-53 0 -89 36t-36 88zM772 1298q0 51 36.5 88t88.5 37q51 0 88 -37t37 -88q0 -52 -37 -88t-88 -36q-53 0 -89 36t-36 88z" />
<glyph unicode="&#xe5;" d="M8 317q0 71 14.5 149.5t42.5 159t73.5 153.5t101.5 130t132.5 91t162.5 34q151 0 167 -106l21 96h297l-150 -696q-8 -36 -8 -66q0 -42 20 -59t64 -17q57 0 99 49.5t67 131.5h86q-33 -96 -77.5 -166t-85.5 -107.5t-90 -60t-84 -28t-75 -5.5q-84 0 -136 45.5t-64 132.5 q-123 -190 -305 -190q-43 0 -82 10.5t-74 35t-61 62t-41 94t-15 127.5zM311 346q0 -56 10 -91.5t28.5 -48.5t31.5 -16.5t33 -3.5q49 0 101 49t69 132l98 462q-2 27 -22 52.5t-62 25.5q-62 0 -118 -60t-91.5 -148.5t-56.5 -183t-21 -169.5zM514 1274q0 29 10.5 60.5t30 60 t54.5 47t79 18.5q72 0 110 -44t38 -113q0 -74 -44.5 -123.5t-134.5 -49.5q-64 0 -103.5 42t-39.5 102zM596 1278q0 -76 70 -76q46 0 70 25t24 69q0 20 -1.5 32.5t-7.5 29.5t-21 26t-38 9q-49 0 -72.5 -35t-23.5 -80z" />
<glyph unicode="&#xe6;" horiz-adv-x="1329" d="M18 254q0 93 34 160t97.5 105.5t143 56.5t180.5 18q57 0 107 -8q43 91 43 180q0 65 -31.5 105t-93.5 40q-84 0 -140 -24.5t-108 -71.5l-57 59q55 56 104 90.5t98 48.5t82.5 17.5t87.5 3.5q165 0 266 -82q121 90 277 90q66 0 111.5 -15.5t69 -45t33 -63.5t9.5 -78 q0 -110 -66.5 -206.5t-174.5 -154.5t-230 -65q-4 -46 -4 -66q0 -108 31 -148t92 -40q71 0 125.5 13t102 45.5t77 61.5t82.5 87h70q-38 -60 -76.5 -110t-92 -101t-111 -85.5t-131.5 -56.5t-155 -22q-246 0 -301 192q-23 -44 -46 -75t-57 -61t-81 -45t-106 -15 q-49 0 -91.5 11.5t-83 39.5t-63.5 83t-23 132zM307 289q0 -33 10.5 -55.5t27.5 -31.5t30 -12.5t26 -3.5q55 0 95 61.5t69 219.5q-12 2 -35 2q-100 0 -161.5 -49.5t-61.5 -130.5zM874 512q119 7 209.5 108.5t90.5 223.5q0 90 -50 90t-101.5 -65.5t-88.5 -159.5t-60 -197z" />
<glyph unicode="&#xe7;" horiz-adv-x="786" d="M8 313q0 53 8.5 113.5t28.5 131t49 137t74 129t99.5 108.5t130 74t161.5 28q65 0 111.5 -15.5t70.5 -42t34.5 -56.5t10.5 -66q0 -74 -31.5 -123t-76.5 -49q-43 0 -82 25q35 79 35 143q0 76 -58 76q-67 0 -131.5 -102t-101.5 -239.5t-37 -250.5q0 -99 38.5 -136.5 t117.5 -37.5q77 0 144.5 29.5t113 69.5t104.5 108h70q-236 -379 -563 -379q-23 0 -35 2l10 22l-72 47l-20 -57q-203 54 -203 311zM14 -389q35 65 82 65q45 0 86 -27.5t66 -27.5q26 0 43.5 26.5t17.5 59.5q0 31 -20 52.5t-60 21.5q-49 0 -106 -25l88 246q37 -9 82 -12 l-49 -125q66 16 108 16q63 0 95 -27t32 -75q0 -104 -74.5 -164.5t-171.5 -60.5q-70 0 -117.5 14t-101.5 43z" />
<glyph unicode="&#xe8;" horiz-adv-x="786" d="M8 313q0 76 16.5 165t58 189t102 180.5t158.5 133.5t218 53q225 0 225 -196q0 -112 -66.5 -208t-174 -152.5t-230.5 -63.5q-4 -58 -4 -82q0 -100 35 -136t113 -36q77 0 144.5 29.5t113 69.5t104.5 108h70q-236 -379 -563 -379q-151 0 -235.5 79t-84.5 246zM332 512 q78 5 147 52t109.5 121.5t40.5 156.5q0 84 -51 84q-72 0 -141.5 -125.5t-104.5 -288.5zM389 1536h215l60 -387h-154z" />
<glyph unicode="&#xe9;" horiz-adv-x="786" d="M8 313q0 76 16.5 165t58 189t102 180.5t158.5 133.5t218 53q225 0 225 -196q0 -112 -66.5 -208t-174 -152.5t-230.5 -63.5q-4 -58 -4 -82q0 -100 35 -136t113 -36q77 0 144.5 29.5t113 69.5t104.5 108h70q-236 -379 -563 -379q-151 0 -235.5 79t-84.5 246zM332 512 q78 5 147 52t109.5 121.5t40.5 156.5q0 84 -51 84q-72 0 -141.5 -125.5t-104.5 -288.5zM432 1149l186 387h216l-248 -387h-154z" />
<glyph unicode="&#xea;" horiz-adv-x="786" d="M8 313q0 76 16.5 165t58 189t102 180.5t158.5 133.5t218 53q225 0 225 -196q0 -112 -66.5 -208t-174 -152.5t-230.5 -63.5q-4 -58 -4 -82q0 -100 35 -136t113 -36q77 0 144.5 29.5t113 69.5t104.5 108h70q-236 -379 -563 -379q-151 0 -235.5 79t-84.5 246zM250 1149 l434 387h43l123 -387h-66l-122 164l-322 -164h-90zM332 512q78 5 147 52t109.5 121.5t40.5 156.5q0 84 -51 84q-72 0 -141.5 -125.5t-104.5 -288.5z" />
<glyph unicode="&#xeb;" horiz-adv-x="786" d="M8 313q0 76 16.5 165t58 189t102 180.5t158.5 133.5t218 53q225 0 225 -196q0 -112 -66.5 -208t-174 -152.5t-230.5 -63.5q-4 -58 -4 -82q0 -100 35 -136t113 -36q77 0 144.5 29.5t113 69.5t104.5 108h70q-236 -379 -563 -379q-151 0 -235.5 79t-84.5 246zM279 1298 q0 51 36 88t88 37q51 0 88 -37t37 -88q0 -52 -37 -88t-88 -36q-53 0 -88.5 36t-35.5 88zM332 512q78 5 147 52t109.5 121.5t40.5 156.5q0 84 -51 84q-72 0 -141.5 -125.5t-104.5 -288.5zM647 1298q0 51 36.5 88t88.5 37q51 0 88 -37t37 -88q0 -52 -37 -88t-88 -36 q-53 0 -89 36t-36 88z" />
<glyph unicode="&#xec;" horiz-adv-x="546" d="M18 233q0 51 17 134l139 657h295l-147 -696q-9 -40 -9 -66q0 -42 20 -59t64 -17q59 0 110 51.5t75 129.5h86q-33 -95 -79 -167t-90.5 -111t-95.5 -63t-88.5 -31t-76.5 -7q-98 0 -159 61t-61 184zM170 1536h215l59 -387h-153z" />
<glyph unicode="&#xed;" horiz-adv-x="546" d="M18 233q0 51 17 134l139 657h295l-147 -696q-9 -40 -9 -66q0 -42 20 -59t64 -17q59 0 110 51.5t75 129.5h86q-33 -95 -79 -167t-90.5 -111t-95.5 -63t-88.5 -31t-76.5 -7q-98 0 -159 61t-61 184zM283 1149l186 387h215l-248 -387h-153z" />
<glyph unicode="&#xee;" horiz-adv-x="546" d="M18 233q0 51 17 134l139 657h295l-147 -696q-9 -40 -9 -66q0 -42 20 -59t64 -17q59 0 110 51.5t75 129.5h86q-33 -95 -79 -167t-90.5 -111t-95.5 -63t-88.5 -31t-76.5 -7q-98 0 -159 61t-61 184zM47 1149l434 387h43l123 -387h-65l-123 164l-322 -164h-90z" />
<glyph unicode="&#xef;" horiz-adv-x="546" d="M18 233q0 51 17 134l139 657h295l-147 -696q-9 -40 -9 -66q0 -42 20 -59t64 -17q59 0 110 51.5t75 129.5h86q-33 -95 -79 -167t-90.5 -111t-95.5 -63t-88.5 -31t-76.5 -7q-98 0 -159 61t-61 184zM70 1298q0 51 36.5 88t88.5 37q51 0 87.5 -37t36.5 -88q0 -52 -36.5 -88 t-87.5 -36q-53 0 -89 36t-36 88zM438 1298q0 51 36.5 88t88.5 37q51 0 88 -37t37 -88q0 -52 -37 -88t-88 -36q-53 0 -89 36t-36 88z" />
<glyph unicode="&#xf0;" horiz-adv-x="1101" d="M33 317q0 71 14.5 149.5t42.5 159t73 153.5t101 130t132.5 91t162.5 34q84 0 125 -28.5t41 -75.5v-12l16 75q22 111 25 185l-154 -25l4 80l144 22q-18 95 -82 179h92q127 -73 184 -146l152 27v-84l-109 -19q31 -81 31 -172q0 -77 -22 -190l-111 -522q-8 -36 -8 -66 q0 -42 20 -59t64 -17q57 0 99 49.5t67 131.5h86q-33 -96 -77.5 -166t-85.5 -107.5t-90 -60t-84 -28t-75 -5.5q-84 0 -136.5 45.5t-64.5 132.5q-123 -190 -305 -190q-55 0 -101.5 17.5t-86 55t-62 103t-22.5 153.5zM336 346q0 -45 7.5 -77t17 -47.5t26 -24t26.5 -10t25 -1.5 q49 0 101 49t69 132l99 462q0 26 -19.5 52t-64.5 26q-62 0 -118 -60t-91.5 -148.5t-56.5 -183t-21 -169.5z" />
<glyph unicode="&#xf1;" horiz-adv-x="1034" d="M-43 0l217 1024h295l-23 -106q100 114 240 114q104 0 165.5 -56.5t61.5 -174.5q0 -89 -49 -283.5t-49 -245.5q0 -86 82 -86q61 0 96.5 43t75.5 138h86q-33 -97 -73.5 -168t-78.5 -110.5t-81.5 -63t-76.5 -30.5t-71 -7q-124 0 -183 66.5t-59 164.5q0 71 46.5 264t46.5 258 q0 105 -74 105q-52 0 -93.5 -53t-66.5 -136l-139 -657h-295zM215 1192q49 98 137 149.5t205 51.5q79 0 180.5 -34t157.5 -34q85 0 129 47l12 -2q-18 -75 -117 -140t-212 -65q-70 0 -180.5 38t-164.5 38q-79 0 -135 -53z" />
<glyph unicode="&#xf2;" horiz-adv-x="899" d="M6 311q0 63 12.5 136t38.5 156t71.5 158.5t105 137t146 98.5t187.5 37q259 0 262 -321q8 -2 23 -2q66 0 154.5 36.5t160.5 86.5l19 -56q-58 -62 -153.5 -106.5t-207.5 -63.5q-24 -282 -161.5 -451t-329.5 -169q-152 0 -240 78t-88 245zM311 346q0 -99 22.5 -132.5 t82.5 -33.5q76 0 145 121t92 301q-55 13 -55 86q0 41 17.5 69.5t46.5 39.5q-3 62 -21 88t-57 26q-68 0 -133.5 -100t-102.5 -231t-37 -234zM414 1536h215l59 -387h-153z" />
<glyph unicode="&#xf3;" horiz-adv-x="899" d="M6 311q0 63 12.5 136t38.5 156t71.5 158.5t105 137t146 98.5t187.5 37q259 0 262 -321q8 -2 23 -2q66 0 154.5 36.5t160.5 86.5l19 -56q-58 -62 -153.5 -106.5t-207.5 -63.5q-24 -282 -161.5 -451t-329.5 -169q-152 0 -240 78t-88 245zM311 346q0 -99 22.5 -132.5 t82.5 -33.5q76 0 145 121t92 301q-55 13 -55 86q0 41 17.5 69.5t46.5 39.5q-3 62 -21 88t-57 26q-68 0 -133.5 -100t-102.5 -231t-37 -234zM496 1149l186 387h215l-248 -387h-153z" />
<glyph unicode="&#xf4;" horiz-adv-x="899" d="M6 311q0 63 12.5 136t38.5 156t71.5 158.5t105 137t146 98.5t187.5 37q259 0 262 -321q8 -2 23 -2q66 0 154.5 36.5t160.5 86.5l19 -56q-58 -62 -153.5 -106.5t-207.5 -63.5q-24 -282 -161.5 -451t-329.5 -169q-152 0 -240 78t-88 245zM242 1149l434 387h43l123 -387h-66 l-123 164l-321 -164h-90zM311 346q0 -99 22.5 -132.5t82.5 -33.5q76 0 145 121t92 301q-55 13 -55 86q0 41 17.5 69.5t46.5 39.5q-3 62 -21 88t-57 26q-68 0 -133.5 -100t-102.5 -231t-37 -234z" />
<glyph unicode="&#xf5;" horiz-adv-x="899" d="M6 311q0 63 12.5 136t38.5 156t71.5 158.5t105 137t146 98.5t187.5 37q259 0 262 -321q8 -2 23 -2q66 0 154.5 36.5t160.5 86.5l19 -56q-58 -62 -153.5 -106.5t-207.5 -63.5q-24 -282 -161.5 -451t-329.5 -169q-152 0 -240 78t-88 245zM129 1192q49 98 137 149.5 t205 51.5q79 0 180.5 -34t157.5 -34q85 0 129 47l12 -2q-18 -75 -117 -140t-212 -65q-70 0 -180.5 38t-164.5 38q-79 0 -135 -53zM311 346q0 -99 22.5 -132.5t82.5 -33.5q76 0 145 121t92 301q-55 13 -55 86q0 41 17.5 69.5t46.5 39.5q-3 62 -21 88t-57 26 q-68 0 -133.5 -100t-102.5 -231t-37 -234z" />
<glyph unicode="&#xf6;" horiz-adv-x="899" d="M6 311q0 63 12.5 136t38.5 156t71.5 158.5t105 137t146 98.5t187.5 37q259 0 262 -321q8 -2 23 -2q66 0 154.5 36.5t160.5 86.5l19 -56q-58 -62 -153.5 -106.5t-207.5 -63.5q-24 -282 -161.5 -451t-329.5 -169q-152 0 -240 78t-88 245zM262 1298q0 51 36.5 88t88.5 37 q51 0 88 -37t37 -88q0 -52 -37 -88t-88 -36q-53 0 -89 36t-36 88zM311 346q0 -99 22.5 -132.5t82.5 -33.5q76 0 145 121t92 301q-55 13 -55 86q0 41 17.5 69.5t46.5 39.5q-3 62 -21 88t-57 26q-68 0 -133.5 -100t-102.5 -231t-37 -234zM631 1298q0 51 36.5 88t88.5 37 q51 0 88 -37t37 -88q0 -52 -37 -88t-88 -36q-53 0 -89 36t-36 88z" />
<glyph unicode="&#xf7;" horiz-adv-x="849" d="M12 422l37 162h717l-35 -162h-719zM209 164q0 68 47.5 116t114.5 48t115.5 -48t48.5 -116q0 -67 -48 -114.5t-116 -47.5q-67 0 -114.5 47t-47.5 115zM332 850q0 68 47.5 116t114.5 48t115 -48t48 -116q0 -67 -47.5 -114.5t-115.5 -47.5t-115 47t-47 115z" />
<glyph unicode="&#xf8;" horiz-adv-x="899" d="M6 311q0 51 8.5 111t28 128.5t48 134t72 127t97 108.5t126 77.5t155.5 34.5l43 207h106l-45 -215q178 -43 184 -293q70 4 151 41.5t146 81.5h66q-44 -65 -147.5 -130.5t-219.5 -96.5q-17 -251 -126 -418.5t-271 -208.5l-45 -211h-107l43 199q-146 3 -229.5 81.5 t-83.5 241.5zM311 346q0 -99 22.5 -132.5t82.5 -33.5q77 0 145.5 123t91.5 305q-61 12 -61 94q0 87 70 111q-6 54 -23.5 76t-54.5 22q-68 0 -133.5 -100t-102.5 -231t-37 -234z" />
<glyph unicode="&#xf9;" horiz-adv-x="1034" d="M18 233q0 51 17 134l139 657h295l-147 -696q-7 -35 -7 -58q0 -84 62 -84q109 0 164 181l139 657h295l-148 -696q-8 -36 -8 -66q0 -42 20 -59t64 -17q57 0 99 49.5t67 131.5h86q-133 -379 -412 -379q-88 0 -140.5 49.5t-61.5 144.5q-118 -194 -303 -194q-98 0 -159 61 t-61 184zM414 1536h215l59 -387h-153z" />
<glyph unicode="&#xfa;" horiz-adv-x="1034" d="M18 233q0 51 17 134l139 657h295l-147 -696q-7 -35 -7 -58q0 -84 62 -84q109 0 164 181l139 657h295l-148 -696q-8 -36 -8 -66q0 -42 20 -59t64 -17q57 0 99 49.5t67 131.5h86q-133 -379 -412 -379q-88 0 -140.5 49.5t-61.5 144.5q-118 -194 -303 -194q-98 0 -159 61 t-61 184zM524 1149l187 387h215l-248 -387h-154z" />
<glyph unicode="&#xfb;" horiz-adv-x="1034" d="M18 233q0 51 17 134l139 657h295l-147 -696q-7 -35 -7 -58q0 -84 62 -84q109 0 164 181l139 657h295l-148 -696q-8 -36 -8 -66q0 -42 20 -59t64 -17q57 0 99 49.5t67 131.5h86q-133 -379 -412 -379q-88 0 -140.5 49.5t-61.5 144.5q-118 -194 -303 -194q-98 0 -159 61 t-61 184zM293 1149l434 387h43l123 -387h-66l-122 164l-322 -164h-90z" />
<glyph unicode="&#xfc;" horiz-adv-x="1034" d="M18 233q0 51 17 134l139 657h295l-147 -696q-7 -35 -7 -58q0 -84 62 -84q109 0 164 181l139 657h295l-148 -696q-8 -36 -8 -66q0 -42 20 -59t64 -17q57 0 99 49.5t67 131.5h86q-133 -379 -412 -379q-88 0 -140.5 49.5t-61.5 144.5q-118 -194 -303 -194q-98 0 -159 61 t-61 184zM313 1298q0 51 36.5 88t88.5 37q51 0 88 -37t37 -88q0 -52 -37 -88t-88 -36q-53 0 -89 36t-36 88zM682 1298q0 51 36.5 88t88.5 37q51 0 88 -37t37 -88q0 -52 -37 -88t-88 -36q-53 0 -89 36t-36 88z" />
<glyph unicode="&#xfd;" horiz-adv-x="995" d="M18 233q0 51 17 134l139 657h295l-147 -696q-7 -28 -7 -52q0 -90 62 -90q54 0 94.5 45.5t65.5 122.5l143 670h295l-203 -950q98 35 157.5 99.5t100.5 193.5h86q-23 -78 -56.5 -140t-68.5 -101.5t-78.5 -69t-79.5 -45t-79 -27.5l-31 -148q-72 -348 -369 -348 q-99 0 -164 51.5t-65 147.5q0 203 334 305l24 110q-102 -114 -245 -114q-98 0 -159 61t-61 184zM238 -285q0 -24 19 -45.5t50 -21.5q34 0 67 47.5t52 134.5l12 59q-200 -75 -200 -174zM522 1149l187 387h215l-248 -387h-154z" />
<glyph unicode="&#xfe;" horiz-adv-x="968" d="M-154 -512l320 1505q24 111 24 191q0 132 -88 250h93q47 -26 79 -47.5t68.5 -56.5t58.5 -73t37 -94t15 -123q0 -44 -9 -100q105 94 248 94q114 0 182 -75.5t68 -247.5q0 -74 -10 -150t-32 -159.5t-61.5 -156t-93 -131t-132.5 -92.5t-175 -34q-138 0 -176 75l-106 -501z M295 217q16 -51 80 -51q61 0 112 39t82.5 99t53 136t30.5 145.5t9 131.5q0 170 -103 170q-36 0 -76.5 -28.5t-66.5 -78.5z" />
<glyph unicode="&#xff;" horiz-adv-x="995" d="M18 233q0 51 17 134l139 657h295l-147 -696q-7 -28 -7 -52q0 -90 62 -90q54 0 94.5 45.5t65.5 122.5l143 670h295l-203 -950q98 35 157.5 99.5t100.5 193.5h86q-23 -78 -56.5 -140t-68.5 -101.5t-78.5 -69t-79.5 -45t-79 -27.5l-31 -148q-72 -348 -369 -348 q-99 0 -164 51.5t-65 147.5q0 203 334 305l24 110q-102 -114 -245 -114q-98 0 -159 61t-61 184zM238 -285q0 -24 19 -45.5t50 -21.5q34 0 67 47.5t52 134.5l12 59q-200 -75 -200 -174zM287 1298q0 51 36.5 88t88.5 37q51 0 88 -37t37 -88q0 -52 -37 -88t-88 -36 q-53 0 -89 36t-36 88zM655 1298q0 51 36.5 88t88.5 37q51 0 88 -37t37 -88q0 -52 -37 -88t-88 -36q-53 0 -89 36t-36 88z" />
<glyph unicode="&#x152;" horiz-adv-x="1781" d="M111 977q0 105 69.5 208t181.5 179.5t261.5 124t302.5 47.5q142 0 233 -39q112 39 266 39q35 0 152.5 -12.5t187.5 -12.5q106 0 185 25q-5 -14 -13.5 -45t-14.5 -50t-20.5 -46.5t-31.5 -45t-47 -34.5t-68 -25q-92 0 -235.5 34.5t-188.5 39.5q90 -129 90 -346 q0 -68 -10 -160h272l-41 -151h-260q-74 -304 -233 -490h498l-43 -217h-793q-86 -12 -139 -12q-373 0 -373 411q0 103 21.5 227t68 254.5t110 237t157 174.5t200.5 68q53 0 105 -17q-89 -54 -174 -223.5t-135 -370.5t-50 -358q0 -109 29 -165t94 -56q74 0 151.5 84.5t137 216 t97.5 301.5t38 332q0 183 -59.5 260.5t-212.5 77.5q-111 0 -215 -37t-185.5 -103t-130.5 -166t-49 -218q0 -77 20 -113q-101 0 -153.5 40.5t-52.5 131.5z" />
<glyph unicode="&#x153;" horiz-adv-x="1374" d="M16 324q0 183 44 324t120 226t171 127.5t204 42.5q181 0 229 -174q128 172 328 172q127 0 194.5 -53.5t67.5 -159.5q0 -89 -44.5 -166t-114.5 -127.5t-148.5 -82t-155.5 -41.5q-6 -49 -6 -88q0 -93 49 -135t119 -42q79 0 185.5 80.5t158.5 190.5h92q-47 -84 -103.5 -155 t-128.5 -132t-161 -96t-184 -35q-101 0 -172 48.5t-105 129.5q-66 -93 -151 -141.5t-174 -48.5q-166 0 -240 77.5t-74 258.5zM289 342q0 -87 35.5 -121.5t101.5 -34.5q45 0 83 33.5t64.5 90.5t44 125.5t27.5 146.5q-42 0 -64 26.5t-22 65.5q0 46 25 87t65 56q-9 107 -86 107 q-68 0 -123.5 -67t-86.5 -164t-47.5 -190t-16.5 -161zM928 510q90 1 165.5 48t116 117.5t41.5 143.5q0 27 -4.5 50t-21.5 44t-45 21q-54 0 -106.5 -68t-87.5 -159.5t-58 -196.5z" />
<glyph unicode="&#x178;" horiz-adv-x="1353" d="M113 993q0 140 108 267t273.5 201.5t334.5 74.5q30 0 84 -4l179 -733l303 727h135l-397 -895l-136 -631h-327l135 631l-197 768q-144 -53 -224.5 -170.5t-80.5 -282.5q0 -35 4 -62t8 -39t10 -24.5t7 -15.5q-219 0 -219 188zM877 1810q0 51 36 88t88 37q51 0 88 -37 t37 -88q0 -52 -37 -88t-88 -36q-53 0 -88.5 36t-35.5 88zM1245 1810q0 51 36.5 88t88.5 37q51 0 88 -37t37 -88q0 -52 -37 -88t-88 -36q-53 0 -89 36t-36 88z" />
<glyph unicode="&#x2c6;" horiz-adv-x="600" d="M0 1149l434 387h43l123 -387h-65l-123 164l-322 -164h-90z" />
<glyph unicode="&#x2dc;" horiz-adv-x="825" d="M78 1192q49 98 137 149.5t205 51.5q79 0 180.5 -34t157.5 -34q85 0 129 47l12 -2q-18 -75 -117.5 -140t-212.5 -65q-70 0 -180 38t-164 38q-79 0 -135 -53z" />
<glyph unicode="&#x2000;" horiz-adv-x="1024" />
<glyph unicode="&#x2001;" horiz-adv-x="2048" />
<glyph unicode="&#x2002;" horiz-adv-x="1024" />
<glyph unicode="&#x2003;" horiz-adv-x="2048" />
<glyph unicode="&#x2004;" horiz-adv-x="682" />
<glyph unicode="&#x2005;" horiz-adv-x="512" />
<glyph unicode="&#x2006;" horiz-adv-x="341" />
<glyph unicode="&#x2007;" horiz-adv-x="341" />
<glyph unicode="&#x2008;" horiz-adv-x="256" />
<glyph unicode="&#x2009;" horiz-adv-x="409" />
<glyph unicode="&#x200a;" horiz-adv-x="113" />
<glyph unicode="&#x2010;" horiz-adv-x="657" d="M80 455l37 161h409l-34 -161h-412z" />
<glyph unicode="&#x2011;" horiz-adv-x="657" d="M80 455l37 161h409l-34 -161h-412z" />
<glyph unicode="&#x2012;" horiz-adv-x="657" d="M80 455l37 161h409l-34 -161h-412z" />
<glyph unicode="&#x2013;" horiz-adv-x="780" d="M80 455l37 161h532l-35 -161h-534z" />
<glyph unicode="&#x2014;" horiz-adv-x="964" d="M80 455l37 161h717l-35 -161h-719z" />
<glyph unicode="&#x2018;" horiz-adv-x="428" d="M190 1188q0 81 66.5 176t181.5 168q19 -11 19 -29l-101 -143q0 -19 25 -35q90 -55 90 -129q0 -59 -43 -101t-106 -42q-62 0 -97 37.5t-35 97.5z" />
<glyph unicode="&#x2019;" horiz-adv-x="421" d="M223 1389q0 59 43.5 101t106.5 42q62 0 96.5 -37.5t34.5 -97.5q0 -81 -66.5 -176t-181.5 -168q-18 10 -18 28l100 144q0 19 -25 35q-90 55 -90 129z" />
<glyph unicode="&#x201a;" horiz-adv-x="450" d="M-20 156q0 59 43 101t106 42q62 0 96.5 -37.5t34.5 -97.5q0 -81 -66.5 -176t-181.5 -168q-18 10 -18 28l100 144q0 20 -24 35q-90 55 -90 129z" />
<glyph unicode="&#x201c;" horiz-adv-x="878" d="M190 1188q0 81 66.5 176t181.5 168q19 -11 19 -29l-101 -143q0 -19 25 -35q90 -55 90 -129q0 -59 -43 -101t-106 -42q-62 0 -97 37.5t-35 97.5zM641 1188q0 81 66.5 176t181.5 168q18 -10 18 -29l-100 -143q0 -20 24 -35q91 -55 91 -129q0 -59 -43.5 -101t-106.5 -42 q-62 0 -96.5 37.5t-34.5 97.5z" />
<glyph unicode="&#x201d;" horiz-adv-x="872" d="M223 1389q0 59 43.5 101t106.5 42q62 0 96.5 -37.5t34.5 -97.5q0 -81 -66.5 -176t-181.5 -168q-18 10 -18 28l100 144q0 19 -25 35q-90 55 -90 129zM674 1389q0 59 43 101t106 42q62 0 96.5 -37.5t34.5 -97.5q0 -82 -66.5 -176.5t-180.5 -167.5q-19 11 -19 28l100 144 q0 20 -24 35q-90 55 -90 129z" />
<glyph unicode="&#x201e;" horiz-adv-x="901" d="M-20 156q0 59 43 101t106 42q62 0 96.5 -37.5t34.5 -97.5q0 -81 -66.5 -176t-181.5 -168q-18 10 -18 28l100 144q0 20 -24 35q-90 55 -90 129zM430 156q0 59 43.5 101t106.5 42q62 0 96.5 -37.5t34.5 -97.5q0 -81 -66.5 -176t-181.5 -168q-19 11 -19 28l101 144 q0 19 -25 35q-90 55 -90 129z" />
<glyph unicode="&#x2022;" horiz-adv-x="575" d="M68 547q0 82 57 140t139 58t140.5 -58t58.5 -140t-58.5 -139.5t-140.5 -57.5t-139 57.5t-57 139.5z" />
<glyph unicode="&#x2026;" horiz-adv-x="1474" d="M-18 154q0 68 47 115.5t114 47.5q68 0 116 -48t48 -115t-48 -114.5t-116 -47.5q-67 0 -114 47t-47 115zM463 154q0 68 47.5 115.5t114.5 47.5t115 -47.5t48 -115.5q0 -67 -47.5 -114.5t-115.5 -47.5q-67 0 -114.5 47t-47.5 115zM965 154q0 68 47 115.5t114 47.5 q68 0 116 -48t48 -115t-48 -114.5t-116 -47.5q-67 0 -114 47t-47 115z" />
<glyph unicode="&#x202f;" horiz-adv-x="409" />
<glyph unicode="&#x2039;" horiz-adv-x="630" d="M16 520l443 400l86 -93l-359 -309l281 -287l-82 -90z" />
<glyph unicode="&#x203a;" horiz-adv-x="636" d="M35 233l358 310l-280 286l82 91l368 -379l-442 -400z" />
<glyph unicode="&#x205f;" horiz-adv-x="512" />
<glyph unicode="&#x20ac;" horiz-adv-x="1267" d="M39 582l29 102h151q2 18 17 133h-146l29 103h137q24 103 59.5 190.5t90.5 167.5t124.5 136t165 89t207.5 33q59 0 110.5 -9t97 -30t78.5 -52.5t52 -78t19 -104.5q0 -87 -35 -138t-109 -51q-71 0 -117 53q35 10 63 67.5t28 100.5q0 14 -2 28.5t-10.5 37t-22.5 39t-42 29 t-65 12.5q-83 0 -158 -75t-126 -189t-84 -256h413l-28 -103h-408q-12 -90 -16 -133h401l-29 -102h-378v-27q0 -106 11 -174t41 -117.5t82.5 -70.5t135.5 -21q119 0 186.5 17.5t128.5 64.5l4 -59q-88 -116 -198 -161.5t-264 -45.5q-67 0 -127 13.5t-120.5 50t-104 93 t-70.5 150.5t-27 215v72h-174z" />
<glyph unicode="&#x2122;" horiz-adv-x="1009" d="M219 1188q0 68 51.5 114t157.5 46q8 0 64 -5.5t90 -5.5q50 0 75 11q-13 -80 -51 -80q-19 0 -63.5 8t-57.5 10l-86 -399h-88l88 407q-58 -2 -90.5 -30t-32.5 -95q0 -14 1.5 -22t4.5 -13l3 -6q-66 0 -66 60zM571 887l140 430l84 12v-346l135 356h96l-78 -452h-88l55 319 l-129 -319h-84v268l-81 -268h-50z" />
<glyph unicode="&#xe000;" horiz-adv-x="1136" d="M0 0v1137h1137v-1137h-1137z" />
</font>
</defs>
</svg>
